<svg width="7" height="8" viewBox="0 0 7 8" fill="none" xmlns="http://www.w3.org/2000/svg">
<path d="M3.33001 0C2.05001 0 1.01001 1.04 1.01001 2.33C1.01001 3.99 3.33001 6.65 3.33001 6.65C3.33001 6.65 5.65001 3.99 5.65001 2.33C5.66001 1.04 4.62001 0 3.33001 0ZM3.35001 3.55C2.71001 3.55 2.20001 3.03 2.20001 2.39C2.20001 1.75 2.72001 1.23 3.35001 1.23C3.99001 1.23 4.50001 1.75 4.50001 2.39C4.50001 3.03 3.99001 3.55 3.35001 3.55Z" fill="#2B2A29"/>
<path d="M3.34002 7.62C1.69002 7.62 0.0200195 7.2 0.0200195 6.39C0.0200195 5.65 1.41002 5.28 2.60002 5.19L2.63002 5.57C1.12002 5.69 0.41002 6.13 0.41002 6.39C0.41002 6.73 1.55002 7.23 3.35002 7.23C5.14002 7.23 6.29002 6.73 6.29002 6.39C6.29002 6.09 5.45002 5.69 4.10002 5.58L4.13002 5.2C5.30002 5.3 6.68002 5.67 6.68002 6.4C6.66002 7.19 4.99002 7.62 3.34002 7.62Z" fill="#2B2A29"/>
</svg>
