<svg width="28" height="28" viewBox="0 0 28 28" fill="none" xmlns="http://www.w3.org/2000/svg">
<path d="M8.44898 0H7.51099V0.937997H8.44898V0Z" fill="black"/>
<path d="M10.325 0H9.38696V0.937997H10.325V0Z" fill="black"/>
<path d="M13.1425 0H12.2045V0.937997H13.1425V0Z" fill="black"/>
<path d="M14.0805 0H13.1425V0.937997H14.0805V0Z" fill="black"/>
<path d="M15.0185 0H14.0805V0.937997H15.0185V0Z" fill="black"/>
<path d="M17.836 0H16.898V0.937997H17.836V0Z" fill="black"/>
<path d="M18.774 0H17.836V0.937997H18.774V0Z" fill="black"/>
<path d="M19.7155 0H18.7775V0.937997H19.7155V0Z" fill="black"/>
<path d="M8.44898 0.937996H7.51099V1.87599H8.44898V0.937996Z" fill="black"/>
<path d="M9.38695 0.937996H8.44897V1.87599H9.38695V0.937996Z" fill="black"/>
<path d="M11.263 0.937996H10.325V1.87599H11.263V0.937996Z" fill="black"/>
<path d="M13.1425 0.937996H12.2045V1.87599H13.1425V0.937996Z" fill="black"/>
<path d="M15.96 0.937996H15.022V1.87599H15.96V0.937996Z" fill="black"/>
<path d="M19.7155 0.937996H18.7775V1.87599H19.7155V0.937996Z" fill="black"/>
<path d="M9.38695 1.8795H8.44897V2.8175H9.38695V1.8795Z" fill="black"/>
<path d="M10.325 1.8795H9.38696V2.8175H10.325V1.8795Z" fill="black"/>
<path d="M15.96 1.8795H15.022V2.8175H15.96V1.8795Z" fill="black"/>
<path d="M17.836 1.8795H16.898V2.8175H17.836V1.8795Z" fill="black"/>
<path d="M19.7155 1.8795H18.7775V2.8175H19.7155V1.8795Z" fill="black"/>
<path d="M8.44898 2.81749H7.51099V3.7555H8.44898V2.81749Z" fill="black"/>
<path d="M9.38695 2.81749H8.44897V3.7555H9.38695V2.81749Z" fill="black"/>
<path d="M10.325 2.81749H9.38696V3.7555H10.325V2.81749Z" fill="black"/>
<path d="M12.2045 2.81749H11.2665V3.7555H12.2045V2.81749Z" fill="black"/>
<path d="M14.0805 2.81749H13.1425V3.7555H14.0805V2.81749Z" fill="black"/>
<path d="M15.0185 2.81749H14.0805V3.7555H15.0185V2.81749Z" fill="black"/>
<path d="M16.898 2.81749H15.96V3.7555H16.898V2.81749Z" fill="black"/>
<path d="M17.836 2.81749H16.898V3.7555H17.836V2.81749Z" fill="black"/>
<path d="M19.7155 2.81749H18.7775V3.7555H19.7155V2.81749Z" fill="black"/>
<path d="M10.325 3.759H9.38696V4.697H10.325V3.759Z" fill="black"/>
<path d="M11.263 3.759H10.325V4.697H11.263V3.759Z" fill="black"/>
<path d="M12.2045 3.759H11.2665V4.697H12.2045V3.759Z" fill="black"/>
<path d="M14.0805 3.759H13.1425V4.697H14.0805V3.759Z" fill="black"/>
<path d="M15.96 3.759H15.022V4.697H15.96V3.759Z" fill="black"/>
<path d="M18.774 3.759H17.836V4.697H18.774V3.759Z" fill="black"/>
<path d="M11.263 4.69699H10.325V5.63499H11.263V4.69699Z" fill="black"/>
<path d="M12.2045 4.69699H11.2665V5.63499H12.2045V4.69699Z" fill="black"/>
<path d="M13.1425 4.69699H12.2045V5.63499H13.1425V4.69699Z" fill="black"/>
<path d="M15.0185 4.69699H14.0805V5.63499H15.0185V4.69699Z" fill="black"/>
<path d="M15.96 4.69699H15.022V5.63499H15.96V4.69699Z" fill="black"/>
<path d="M16.898 4.69699H15.96V5.63499H16.898V4.69699Z" fill="black"/>
<path d="M17.836 4.69699H16.898V5.63499H17.836V4.69699Z" fill="black"/>
<path d="M18.774 4.69699H17.836V5.63499H18.774V4.69699Z" fill="black"/>
<path d="M19.7155 4.69699H18.7775V5.63499H19.7155V4.69699Z" fill="black"/>
<path d="M8.44898 5.63849H7.51099V6.57649H8.44898V5.63849Z" fill="black"/>
<path d="M10.325 5.63849H9.38696V6.57649H10.325V5.63849Z" fill="black"/>
<path d="M12.2045 5.63849H11.2665V6.57649H12.2045V5.63849Z" fill="black"/>
<path d="M14.0805 5.63849H13.1425V6.57649H14.0805V5.63849Z" fill="black"/>
<path d="M15.96 5.63849H15.022V6.57649H15.96V5.63849Z" fill="black"/>
<path d="M17.836 5.63849H16.898V6.57649H17.836V5.63849Z" fill="black"/>
<path d="M19.7155 5.63849H18.7775V6.57649H19.7155V5.63849Z" fill="black"/>
<path d="M8.44898 6.57648H7.51099V7.51447H8.44898V6.57648Z" fill="black"/>
<path d="M11.263 6.57648H10.325V7.51447H11.263V6.57648Z" fill="black"/>
<path d="M12.2045 6.57648H11.2665V7.51447H12.2045V6.57648Z" fill="black"/>
<path d="M15.0185 6.57648H14.0805V7.51447H15.0185V6.57648Z" fill="black"/>
<path d="M15.96 6.57648H15.022V7.51447H15.96V6.57648Z" fill="black"/>
<path d="M16.898 6.57648H15.96V7.51447H16.898V6.57648Z" fill="black"/>
<path d="M18.774 6.57648H17.836V7.51447H18.774V6.57648Z" fill="black"/>
<path d="M19.7155 6.57648H18.7775V7.51447H19.7155V6.57648Z" fill="black"/>
<path d="M0.937997 7.51801H0V8.456H0.937997V7.51801Z" fill="black"/>
<path d="M2.81398 7.51801H1.87598V8.456H2.81398V7.51801Z" fill="black"/>
<path d="M3.75551 7.51801H2.8175V8.456H3.75551V7.51801Z" fill="black"/>
<path d="M5.6315 7.51801H4.69348V8.456H5.6315V7.51801Z" fill="black"/>
<path d="M6.56947 7.51801H5.63147V8.456H6.56947V7.51801Z" fill="black"/>
<path d="M7.511 7.51801H6.573V8.456H7.511V7.51801Z" fill="black"/>
<path d="M10.325 7.51801H9.38696V8.456H10.325V7.51801Z" fill="black"/>
<path d="M13.1425 7.51801H12.2045V8.456H13.1425V7.51801Z" fill="black"/>
<path d="M15.0185 7.51801H14.0805V8.456H15.0185V7.51801Z" fill="black"/>
<path d="M16.898 7.51801H15.96V8.456H16.898V7.51801Z" fill="black"/>
<path d="M17.836 7.51801H16.898V8.456H17.836V7.51801Z" fill="black"/>
<path d="M18.774 7.51801H17.836V8.456H18.774V7.51801Z" fill="black"/>
<path d="M19.7155 7.51801H18.7775V8.456H19.7155V7.51801Z" fill="black"/>
<path d="M21.5915 7.51801H20.6535V8.456H21.5915V7.51801Z" fill="black"/>
<path d="M24.409 7.51801H23.471V8.456H24.409V7.51801Z" fill="black"/>
<path d="M26.285 7.51801H25.347V8.456H26.285V7.51801Z" fill="black"/>
<path d="M27.223 7.51801H26.285V8.456H27.223V7.51801Z" fill="black"/>
<path d="M2.81398 8.45602H1.87598V9.394H2.81398V8.45602Z" fill="black"/>
<path d="M5.6315 8.45602H4.69348V9.394H5.6315V8.45602Z" fill="black"/>
<path d="M7.511 8.45602H6.573V9.394H7.511V8.45602Z" fill="black"/>
<path d="M8.44898 8.45602H7.51099V9.394H8.44898V8.45602Z" fill="black"/>
<path d="M9.38695 8.45602H8.44897V9.394H9.38695V8.45602Z" fill="black"/>
<path d="M12.2045 8.45602H11.2665V9.394H12.2045V8.45602Z" fill="black"/>
<path d="M13.1425 8.45602H12.2045V9.394H13.1425V8.45602Z" fill="black"/>
<path d="M14.0805 8.45602H13.1425V9.394H14.0805V8.45602Z" fill="black"/>
<path d="M15.0185 8.45602H14.0805V9.394H15.0185V8.45602Z" fill="black"/>
<path d="M17.836 8.45602H16.898V9.394H17.836V8.45602Z" fill="black"/>
<path d="M18.774 8.45602H17.836V9.394H18.774V8.45602Z" fill="black"/>
<path d="M19.7155 8.45602H18.7775V9.394H19.7155V8.45602Z" fill="black"/>
<path d="M20.6535 8.45602H19.7155V9.394H20.6535V8.45602Z" fill="black"/>
<path d="M21.5915 8.45602H20.6535V9.394H21.5915V8.45602Z" fill="black"/>
<path d="M22.5296 8.45602H21.5915V9.394H22.5296V8.45602Z" fill="black"/>
<path d="M23.4675 8.45602H22.5295V9.394H23.4675V8.45602Z" fill="black"/>
<path d="M27.223 8.45602H26.285V9.394H27.223V8.45602Z" fill="black"/>
<path d="M0.937997 9.39749H0V10.3355H0.937997V9.39749Z" fill="black"/>
<path d="M1.87599 9.39749H0.937988V10.3355H1.87599V9.39749Z" fill="black"/>
<path d="M3.75551 9.39749H2.8175V10.3355H3.75551V9.39749Z" fill="black"/>
<path d="M6.56947 9.39749H5.63147V10.3355H6.56947V9.39749Z" fill="black"/>
<path d="M8.44898 9.39749H7.51099V10.3355H8.44898V9.39749Z" fill="black"/>
<path d="M10.325 9.39749H9.38696V10.3355H10.325V9.39749Z" fill="black"/>
<path d="M11.263 9.39749H10.325V10.3355H11.263V9.39749Z" fill="black"/>
<path d="M13.1425 9.39749H12.2045V10.3355H13.1425V9.39749Z" fill="black"/>
<path d="M15.96 9.39749H15.022V10.3355H15.96V9.39749Z" fill="black"/>
<path d="M20.6535 9.39749H19.7155V10.3355H20.6535V9.39749Z" fill="black"/>
<path d="M21.5915 9.39749H20.6535V10.3355H21.5915V9.39749Z" fill="black"/>
<path d="M23.4675 9.39749H22.5295V10.3355H23.4675V9.39749Z" fill="black"/>
<path d="M25.347 9.39749H24.409V10.3355H25.347V9.39749Z" fill="black"/>
<path d="M26.285 9.39749H25.347V10.3355H26.285V9.39749Z" fill="black"/>
<path d="M0.937997 10.3355H0V11.2735H0.937997V10.3355Z" fill="black"/>
<path d="M1.87599 10.3355H0.937988V11.2735H1.87599V10.3355Z" fill="black"/>
<path d="M2.81398 10.3355H1.87598V11.2735H2.81398V10.3355Z" fill="black"/>
<path d="M7.511 10.3355H6.573V11.2735H7.511V10.3355Z" fill="black"/>
<path d="M8.44898 10.3355H7.51099V11.2735H8.44898V10.3355Z" fill="black"/>
<path d="M9.38695 10.3355H8.44897V11.2735H9.38695V10.3355Z" fill="black"/>
<path d="M10.325 10.3355H9.38696V11.2735H10.325V10.3355Z" fill="black"/>
<path d="M11.263 10.3355H10.325V11.2735H11.263V10.3355Z" fill="black"/>
<path d="M15.96 10.3355H15.022V11.2735H15.96V10.3355Z" fill="black"/>
<path d="M17.836 10.3355H16.898V11.2735H17.836V10.3355Z" fill="black"/>
<path d="M18.774 10.3355H17.836V11.2735H18.774V10.3355Z" fill="black"/>
<path d="M19.7155 10.3355H18.7775V11.2735H19.7155V10.3355Z" fill="black"/>
<path d="M20.6535 10.3355H19.7155V11.2735H20.6535V10.3355Z" fill="black"/>
<path d="M22.5296 10.3355H21.5915V11.2735H22.5296V10.3355Z" fill="black"/>
<path d="M24.409 10.3355H23.471V11.2735H24.409V10.3355Z" fill="black"/>
<path d="M27.223 10.3355H26.285V11.2735H27.223V10.3355Z" fill="black"/>
<path d="M3.75551 11.2735H2.8175V12.2115H3.75551V11.2735Z" fill="black"/>
<path d="M5.6315 11.2735H4.69348V12.2115H5.6315V11.2735Z" fill="black"/>
<path d="M6.56947 11.2735H5.63147V12.2115H6.56947V11.2735Z" fill="black"/>
<path d="M7.511 11.2735H6.573V12.2115H7.511V11.2735Z" fill="black"/>
<path d="M9.38695 11.2735H8.44897V12.2115H9.38695V11.2735Z" fill="black"/>
<path d="M10.325 11.2735H9.38696V12.2115H10.325V11.2735Z" fill="black"/>
<path d="M14.0805 11.2735H13.1425V12.2115H14.0805V11.2735Z" fill="black"/>
<path d="M15.0185 11.2735H14.0805V12.2115H15.0185V11.2735Z" fill="black"/>
<path d="M16.898 11.2735H15.96V12.2115H16.898V11.2735Z" fill="black"/>
<path d="M22.5296 11.2735H21.5915V12.2115H22.5296V11.2735Z" fill="black"/>
<path d="M24.409 11.2735H23.471V12.2115H24.409V11.2735Z" fill="black"/>
<path d="M25.347 11.2735H24.409V12.2115H25.347V11.2735Z" fill="black"/>
<path d="M0.937997 12.215H0V13.153H0.937997V12.215Z" fill="black"/>
<path d="M1.87599 12.215H0.937988V13.153H1.87599V12.215Z" fill="black"/>
<path d="M2.81398 12.215H1.87598V13.153H2.81398V12.215Z" fill="black"/>
<path d="M3.75551 12.215H2.8175V13.153H3.75551V12.215Z" fill="black"/>
<path d="M8.44898 12.215H7.51099V13.153H8.44898V12.215Z" fill="black"/>
<path d="M12.2045 12.215H11.2665V13.153H12.2045V12.215Z" fill="black"/>
<path d="M14.0805 12.215H13.1425V13.153H14.0805V12.215Z" fill="black"/>
<path d="M15.96 12.215H15.022V13.153H15.96V12.215Z" fill="black"/>
<path d="M18.774 12.215H17.836V13.153H18.774V12.215Z" fill="black"/>
<path d="M20.6535 12.215H19.7155V13.153H20.6535V12.215Z" fill="black"/>
<path d="M21.5915 12.215H20.6535V13.153H21.5915V12.215Z" fill="black"/>
<path d="M26.285 12.215H25.347V13.153H26.285V12.215Z" fill="black"/>
<path d="M27.223 12.215H26.285V13.153H27.223V12.215Z" fill="black"/>
<path d="M3.75551 13.153H2.8175V14.091H3.75551V13.153Z" fill="black"/>
<path d="M6.56947 13.153H5.63147V14.091H6.56947V13.153Z" fill="black"/>
<path d="M7.511 13.153H6.573V14.091H7.511V13.153Z" fill="black"/>
<path d="M11.263 13.153H10.325V14.091H11.263V13.153Z" fill="black"/>
<path d="M12.2045 13.153H11.2665V14.091H12.2045V13.153Z" fill="black"/>
<path d="M13.1425 13.153H12.2045V14.091H13.1425V13.153Z" fill="black"/>
<path d="M15.0185 13.153H14.0805V14.091H15.0185V13.153Z" fill="black"/>
<path d="M15.96 13.153H15.022V14.091H15.96V13.153Z" fill="black"/>
<path d="M16.898 13.153H15.96V14.091H16.898V13.153Z" fill="black"/>
<path d="M17.836 13.153H16.898V14.091H17.836V13.153Z" fill="black"/>
<path d="M18.774 13.153H17.836V14.091H18.774V13.153Z" fill="black"/>
<path d="M21.5915 13.153H20.6535V14.091H21.5915V13.153Z" fill="black"/>
<path d="M23.4675 13.153H22.5295V14.091H23.4675V13.153Z" fill="black"/>
<path d="M24.409 13.153H23.471V14.091H24.409V13.153Z" fill="black"/>
<path d="M25.347 13.153H24.409V14.091H25.347V13.153Z" fill="black"/>
<path d="M26.285 13.153H25.347V14.091H26.285V13.153Z" fill="black"/>
<path d="M27.223 13.153H26.285V14.091H27.223V13.153Z" fill="black"/>
<path d="M0.937997 14.0945H0V15.0325H0.937997V14.0945Z" fill="black"/>
<path d="M2.81398 14.0945H1.87598V15.0325H2.81398V14.0945Z" fill="black"/>
<path d="M5.6315 14.0945H4.69348V15.0325H5.6315V14.0945Z" fill="black"/>
<path d="M7.511 14.0945H6.573V15.0325H7.511V14.0945Z" fill="black"/>
<path d="M11.263 14.0945H10.325V15.0325H11.263V14.0945Z" fill="black"/>
<path d="M12.2045 14.0945H11.2665V15.0325H12.2045V14.0945Z" fill="black"/>
<path d="M14.0805 14.0945H13.1425V15.0325H14.0805V14.0945Z" fill="black"/>
<path d="M15.96 14.0945H15.022V15.0325H15.96V14.0945Z" fill="black"/>
<path d="M19.7155 14.0945H18.7775V15.0325H19.7155V14.0945Z" fill="black"/>
<path d="M20.6535 14.0945H19.7155V15.0325H20.6535V14.0945Z" fill="black"/>
<path d="M21.5915 14.0945H20.6535V15.0325H21.5915V14.0945Z" fill="black"/>
<path d="M22.5296 14.0945H21.5915V15.0325H22.5296V14.0945Z" fill="black"/>
<path d="M26.285 14.0945H25.347V15.0325H26.285V14.0945Z" fill="black"/>
<path d="M0.937997 15.0325H0V15.9705H0.937997V15.0325Z" fill="black"/>
<path d="M6.56947 15.0325H5.63147V15.9705H6.56947V15.0325Z" fill="black"/>
<path d="M8.44898 15.0325H7.51099V15.9705H8.44898V15.0325Z" fill="black"/>
<path d="M11.263 15.0325H10.325V15.9705H11.263V15.0325Z" fill="black"/>
<path d="M12.2045 15.0325H11.2665V15.9705H12.2045V15.0325Z" fill="black"/>
<path d="M14.0805 15.0325H13.1425V15.9705H14.0805V15.0325Z" fill="black"/>
<path d="M15.0185 15.0325H14.0805V15.9705H15.0185V15.0325Z" fill="black"/>
<path d="M15.96 15.0325H15.022V15.9705H15.96V15.0325Z" fill="black"/>
<path d="M17.836 15.0325H16.898V15.9705H17.836V15.0325Z" fill="black"/>
<path d="M19.7155 15.0325H18.7775V15.9705H19.7155V15.0325Z" fill="black"/>
<path d="M20.6535 15.0325H19.7155V15.9705H20.6535V15.0325Z" fill="black"/>
<path d="M22.5296 15.0325H21.5915V15.9705H22.5296V15.0325Z" fill="black"/>
<path d="M23.4675 15.0325H22.5295V15.9705H23.4675V15.0325Z" fill="black"/>
<path d="M26.285 15.0325H25.347V15.9705H26.285V15.0325Z" fill="black"/>
<path d="M2.81398 15.974H1.87598V16.912H2.81398V15.974Z" fill="black"/>
<path d="M8.44898 15.974H7.51099V16.912H8.44898V15.974Z" fill="black"/>
<path d="M9.38695 15.974H8.44897V16.912H9.38695V15.974Z" fill="black"/>
<path d="M14.0805 15.974H13.1425V16.912H14.0805V15.974Z" fill="black"/>
<path d="M15.96 15.974H15.022V16.912H15.96V15.974Z" fill="black"/>
<path d="M16.898 15.974H15.96V16.912H16.898V15.974Z" fill="black"/>
<path d="M19.7155 15.974H18.7775V16.912H19.7155V15.974Z" fill="black"/>
<path d="M25.347 15.974H24.409V16.912H25.347V15.974Z" fill="black"/>
<path d="M26.285 15.974H25.347V16.912H26.285V15.974Z" fill="black"/>
<path d="M0.937997 16.912H0V17.85H0.937997V16.912Z" fill="black"/>
<path d="M2.81398 16.912H1.87598V17.85H2.81398V16.912Z" fill="black"/>
<path d="M3.75551 16.912H2.8175V17.85H3.75551V16.912Z" fill="black"/>
<path d="M4.69349 16.912H3.75549V17.85H4.69349V16.912Z" fill="black"/>
<path d="M5.6315 16.912H4.69348V17.85H5.6315V16.912Z" fill="black"/>
<path d="M6.56947 16.912H5.63147V17.85H6.56947V16.912Z" fill="black"/>
<path d="M9.38695 16.912H8.44897V17.85H9.38695V16.912Z" fill="black"/>
<path d="M11.263 16.912H10.325V17.85H11.263V16.912Z" fill="black"/>
<path d="M13.1425 16.912H12.2045V17.85H13.1425V16.912Z" fill="black"/>
<path d="M14.0805 16.912H13.1425V17.85H14.0805V16.912Z" fill="black"/>
<path d="M15.0185 16.912H14.0805V17.85H15.0185V16.912Z" fill="black"/>
<path d="M15.96 16.912H15.022V17.85H15.96V16.912Z" fill="black"/>
<path d="M19.7155 16.912H18.7775V17.85H19.7155V16.912Z" fill="black"/>
<path d="M21.5915 16.912H20.6535V17.85H21.5915V16.912Z" fill="black"/>
<path d="M22.5296 16.912H21.5915V17.85H22.5296V16.912Z" fill="black"/>
<path d="M24.409 16.912H23.471V17.85H24.409V16.912Z" fill="black"/>
<path d="M25.347 16.912H24.409V17.85H25.347V16.912Z" fill="black"/>
<path d="M3.75551 17.8535H2.8175V18.7915H3.75551V17.8535Z" fill="black"/>
<path d="M5.6315 17.8535H4.69348V18.7915H5.6315V17.8535Z" fill="black"/>
<path d="M7.511 17.8535H6.573V18.7915H7.511V17.8535Z" fill="black"/>
<path d="M8.44898 17.8535H7.51099V18.7915H8.44898V17.8535Z" fill="black"/>
<path d="M12.2045 17.8535H11.2665V18.7915H12.2045V17.8535Z" fill="black"/>
<path d="M13.1425 17.8535H12.2045V18.7915H13.1425V17.8535Z" fill="black"/>
<path d="M14.0805 17.8535H13.1425V18.7915H14.0805V17.8535Z" fill="black"/>
<path d="M16.898 17.8535H15.96V18.7915H16.898V17.8535Z" fill="black"/>
<path d="M17.836 17.8535H16.898V18.7915H17.836V17.8535Z" fill="black"/>
<path d="M19.7155 17.8535H18.7775V18.7915H19.7155V17.8535Z" fill="black"/>
<path d="M25.347 17.8535H24.409V18.7915H25.347V17.8535Z" fill="black"/>
<path d="M1.87599 18.7915H0.937988V19.7296H1.87599V18.7915Z" fill="black"/>
<path d="M5.6315 18.7915H4.69348V19.7296H5.6315V18.7915Z" fill="black"/>
<path d="M6.56947 18.7915H5.63147V19.7296H6.56947V18.7915Z" fill="black"/>
<path d="M7.511 18.7915H6.573V19.7296H7.511V18.7915Z" fill="black"/>
<path d="M8.44898 18.7915H7.51099V19.7296H8.44898V18.7915Z" fill="black"/>
<path d="M10.325 18.7915H9.38696V19.7296H10.325V18.7915Z" fill="black"/>
<path d="M11.263 18.7915H10.325V19.7296H11.263V18.7915Z" fill="black"/>
<path d="M13.1425 18.7915H12.2045V19.7296H13.1425V18.7915Z" fill="black"/>
<path d="M14.0805 18.7915H13.1425V19.7296H14.0805V18.7915Z" fill="black"/>
<path d="M15.96 18.7915H15.022V19.7296H15.96V18.7915Z" fill="black"/>
<path d="M16.898 18.7915H15.96V19.7296H16.898V18.7915Z" fill="black"/>
<path d="M19.7155 18.7915H18.7775V19.7296H19.7155V18.7915Z" fill="black"/>
<path d="M20.6535 18.7915H19.7155V19.7296H20.6535V18.7915Z" fill="black"/>
<path d="M21.5915 18.7915H20.6535V19.7296H21.5915V18.7915Z" fill="black"/>
<path d="M22.5296 18.7915H21.5915V19.7296H22.5296V18.7915Z" fill="black"/>
<path d="M23.4675 18.7915H22.5295V19.7296H23.4675V18.7915Z" fill="black"/>
<path d="M24.409 18.7915H23.471V19.7296H24.409V18.7915Z" fill="black"/>
<path d="M25.347 18.7915H24.409V19.7296H25.347V18.7915Z" fill="black"/>
<path d="M8.44898 19.733H7.51099V20.671H8.44898V19.733Z" fill="black"/>
<path d="M9.38695 19.733H8.44897V20.671H9.38695V19.733Z" fill="black"/>
<path d="M10.325 19.733H9.38696V20.671H10.325V19.733Z" fill="black"/>
<path d="M15.0185 19.733H14.0805V20.671H15.0185V19.733Z" fill="black"/>
<path d="M15.96 19.733H15.022V20.671H15.96V19.733Z" fill="black"/>
<path d="M16.898 19.733H15.96V20.671H16.898V19.733Z" fill="black"/>
<path d="M17.836 19.733H16.898V20.671H17.836V19.733Z" fill="black"/>
<path d="M19.7155 19.733H18.7775V20.671H19.7155V19.733Z" fill="black"/>
<path d="M23.4675 19.733H22.5295V20.671H23.4675V19.733Z" fill="black"/>
<path d="M24.409 19.733H23.471V20.671H24.409V19.733Z" fill="black"/>
<path d="M25.347 19.733H24.409V20.671H25.347V19.733Z" fill="black"/>
<path d="M26.285 19.733H25.347V20.671H26.285V19.733Z" fill="black"/>
<path d="M27.223 19.733H26.285V20.671H27.223V19.733Z" fill="black"/>
<path d="M8.44898 20.671H7.51099V21.609H8.44898V20.671Z" fill="black"/>
<path d="M10.325 20.671H9.38696V21.609H10.325V20.671Z" fill="black"/>
<path d="M11.263 20.671H10.325V21.609H11.263V20.671Z" fill="black"/>
<path d="M12.2045 20.671H11.2665V21.609H12.2045V20.671Z" fill="black"/>
<path d="M14.0805 20.671H13.1425V21.609H14.0805V20.671Z" fill="black"/>
<path d="M15.0185 20.671H14.0805V21.609H15.0185V20.671Z" fill="black"/>
<path d="M17.836 20.671H16.898V21.609H17.836V20.671Z" fill="black"/>
<path d="M18.774 20.671H17.836V21.609H18.774V20.671Z" fill="black"/>
<path d="M19.7155 20.671H18.7775V21.609H19.7155V20.671Z" fill="black"/>
<path d="M21.5915 20.671H20.6535V21.609H21.5915V20.671Z" fill="black"/>
<path d="M23.4675 20.671H22.5295V21.609H23.4675V20.671Z" fill="black"/>
<path d="M24.409 20.671H23.471V21.609H24.409V20.671Z" fill="black"/>
<path d="M26.285 20.671H25.347V21.609H26.285V20.671Z" fill="black"/>
<path d="M8.44898 21.609H7.51099V22.547H8.44898V21.609Z" fill="black"/>
<path d="M10.325 21.609H9.38696V22.547H10.325V21.609Z" fill="black"/>
<path d="M11.263 21.609H10.325V22.547H11.263V21.609Z" fill="black"/>
<path d="M12.2045 21.609H11.2665V22.547H12.2045V21.609Z" fill="black"/>
<path d="M13.1425 21.609H12.2045V22.547H13.1425V21.609Z" fill="black"/>
<path d="M14.0805 21.609H13.1425V22.547H14.0805V21.609Z" fill="black"/>
<path d="M15.0185 21.609H14.0805V22.547H15.0185V21.609Z" fill="black"/>
<path d="M17.836 21.609H16.898V22.547H17.836V21.609Z" fill="black"/>
<path d="M19.7155 21.609H18.7775V22.547H19.7155V21.609Z" fill="black"/>
<path d="M23.4675 21.609H22.5295V22.547H23.4675V21.609Z" fill="black"/>
<path d="M27.223 21.609H26.285V22.547H27.223V21.609Z" fill="black"/>
<path d="M10.325 22.5505H9.38696V23.4885H10.325V22.5505Z" fill="black"/>
<path d="M11.263 22.5505H10.325V23.4885H11.263V22.5505Z" fill="black"/>
<path d="M12.2045 22.5505H11.2665V23.4885H12.2045V22.5505Z" fill="black"/>
<path d="M15.96 22.5505H15.022V23.4885H15.96V22.5505Z" fill="black"/>
<path d="M17.836 22.5505H16.898V23.4885H17.836V22.5505Z" fill="black"/>
<path d="M19.7155 22.5505H18.7775V23.4885H19.7155V22.5505Z" fill="black"/>
<path d="M20.6535 22.5505H19.7155V23.4885H20.6535V22.5505Z" fill="black"/>
<path d="M21.5915 22.5505H20.6535V23.4885H21.5915V22.5505Z" fill="black"/>
<path d="M22.5296 22.5505H21.5915V23.4885H22.5296V22.5505Z" fill="black"/>
<path d="M23.4675 22.5505H22.5295V23.4885H23.4675V22.5505Z" fill="black"/>
<path d="M24.409 22.5505H23.471V23.4885H24.409V22.5505Z" fill="black"/>
<path d="M25.347 22.5505H24.409V23.4885H25.347V22.5505Z" fill="black"/>
<path d="M27.223 22.5505H26.285V23.4885H27.223V22.5505Z" fill="black"/>
<path d="M8.44898 23.4885H7.51099V24.4265H8.44898V23.4885Z" fill="black"/>
<path d="M10.325 23.4885H9.38696V24.4265H10.325V23.4885Z" fill="black"/>
<path d="M12.2045 23.4885H11.2665V24.4265H12.2045V23.4885Z" fill="black"/>
<path d="M13.1425 23.4885H12.2045V24.4265H13.1425V23.4885Z" fill="black"/>
<path d="M18.774 23.4885H17.836V24.4265H18.774V23.4885Z" fill="black"/>
<path d="M20.6535 23.4885H19.7155V24.4265H20.6535V23.4885Z" fill="black"/>
<path d="M23.4675 23.4885H22.5295V24.4265H23.4675V23.4885Z" fill="black"/>
<path d="M24.409 23.4885H23.471V24.4265H24.409V23.4885Z" fill="black"/>
<path d="M25.347 23.4885H24.409V24.4265H25.347V23.4885Z" fill="black"/>
<path d="M26.285 23.4885H25.347V24.4265H26.285V23.4885Z" fill="black"/>
<path d="M8.44898 24.43H7.51099V25.368H8.44898V24.43Z" fill="black"/>
<path d="M9.38695 24.43H8.44897V25.368H9.38695V24.43Z" fill="black"/>
<path d="M10.325 24.43H9.38696V25.368H10.325V24.43Z" fill="black"/>
<path d="M12.2045 24.43H11.2665V25.368H12.2045V24.43Z" fill="black"/>
<path d="M13.1425 24.43H12.2045V25.368H13.1425V24.43Z" fill="black"/>
<path d="M14.0805 24.43H13.1425V25.368H14.0805V24.43Z" fill="black"/>
<path d="M16.898 24.43H15.96V25.368H16.898V24.43Z" fill="black"/>
<path d="M17.836 24.43H16.898V25.368H17.836V24.43Z" fill="black"/>
<path d="M22.5296 24.43H21.5915V25.368H22.5296V24.43Z" fill="black"/>
<path d="M25.347 24.43H24.409V25.368H25.347V24.43Z" fill="black"/>
<path d="M27.223 24.43H26.285V25.368H27.223V24.43Z" fill="black"/>
<path d="M9.38695 25.368H8.44897V26.306H9.38695V25.368Z" fill="black"/>
<path d="M10.325 25.368H9.38696V26.306H10.325V25.368Z" fill="black"/>
<path d="M11.263 25.368H10.325V26.306H11.263V25.368Z" fill="black"/>
<path d="M12.2045 25.368H11.2665V26.306H12.2045V25.368Z" fill="black"/>
<path d="M13.1425 25.368H12.2045V26.306H13.1425V25.368Z" fill="black"/>
<path d="M15.0185 25.368H14.0805V26.306H15.0185V25.368Z" fill="black"/>
<path d="M16.898 25.368H15.96V26.306H16.898V25.368Z" fill="black"/>
<path d="M17.836 25.368H16.898V26.306H17.836V25.368Z" fill="black"/>
<path d="M18.774 25.368H17.836V26.306H18.774V25.368Z" fill="black"/>
<path d="M19.7155 25.368H18.7775V26.306H19.7155V25.368Z" fill="black"/>
<path d="M22.5296 25.368H21.5915V26.306H22.5296V25.368Z" fill="black"/>
<path d="M24.409 25.368H23.471V26.306H24.409V25.368Z" fill="black"/>
<path d="M26.285 25.368H25.347V26.306H26.285V25.368Z" fill="black"/>
<path d="M8.44898 26.3094H7.51099V27.2475H8.44898V26.3094Z" fill="black"/>
<path d="M11.263 26.3094H10.325V27.2475H11.263V26.3094Z" fill="black"/>
<path d="M14.0805 26.3094H13.1425V27.2475H14.0805V26.3094Z" fill="black"/>
<path d="M16.898 26.3094H15.96V27.2475H16.898V26.3094Z" fill="black"/>
<path d="M17.836 26.3094H16.898V27.2475H17.836V26.3094Z" fill="black"/>
<path d="M18.774 26.3094H17.836V27.2475H18.774V26.3094Z" fill="black"/>
<path d="M19.7155 26.3094H18.7775V27.2475H19.7155V26.3094Z" fill="black"/>
<path d="M24.409 26.3094H23.471V27.2475H24.409V26.3094Z" fill="black"/>
<path d="M26.285 26.3094H25.347V27.2475H26.285V26.3094Z" fill="black"/>
<path d="M5.58948 0.00350189H0.983478H0.003479V0.983501V5.5895V6.5695H0.983478H5.58948H6.56948V5.5895V0.983501V0.00350189H5.58948ZM5.58948 5.5895H0.983478V0.983501H5.58948V5.5895Z" fill="black"/>
<path d="M26.2325 0.00350189H21.6265H20.6465V0.983501V5.5895V6.5695H21.6265H26.2325H27.2125V5.5895V0.983501V0.00350189H26.2325ZM26.2325 5.5895H21.6265V0.983501H26.2325V5.5895Z" fill="black"/>
<path d="M5.58948 20.671H0.983478H0.003479V21.651V26.257V27.237H0.983478H5.58948H6.56948V26.257V21.651V20.671H5.58948ZM5.58948 26.257H0.983478V21.651H5.58948V26.257Z" fill="black"/>
<path d="M4.68651 1.88301H1.8725V4.697H4.68651V1.88301Z" fill="black"/>
<path d="M25.3435 1.88301H22.5295V4.697H25.3435V1.88301Z" fill="black"/>
<path d="M4.68651 22.5505H1.8725V25.3645H4.68651V22.5505Z" fill="black"/>
</svg>
