<svg width="7" height="7" viewBox="0 0 7 7" fill="none" xmlns="http://www.w3.org/2000/svg">
<path d="M0.33 0.686269C0.33 0.686269 0.34 0.686269 0.33 0.686269C0.45 0.586269 0.54 0.486269 0.64 0.386269L0.67 0.346269C0.73 0.286269 0.78 0.236269 0.83 0.186269C1.1 -0.0637313 1.42 -0.063732 1.67 0.196268L2.54 1.06627C2.66 1.18627 2.73 1.32627 2.73 1.47627C2.73 1.62627 2.66 1.76627 2.54 1.89627L2 2.43627C1.98 2.45627 1.97 2.47627 1.97 2.49627C1.97 2.49627 1.97 2.51627 1.98 2.53627C1.98 2.53627 1.98 2.54627 1.99 2.54627C2.02 2.59627 2.05 2.65627 2.08 2.71627C2.11 2.76627 2.14 2.83627 2.17 2.88627C2.47 3.36627 2.87 3.80627 3.39 4.22627C3.67 4.44627 3.91 4.59627 4.15 4.69627C4.2 4.71627 4.22 4.71627 4.25 4.67627C4.37 4.53627 4.49 4.41627 4.64 4.27627C4.67 4.24627 4.7 4.21627 4.73 4.18627L4.77 4.14627C5.03 3.88627 5.35 3.88627 5.61 4.14627L6.04 4.57627C6.07 4.60627 6.09 4.62627 6.12 4.65627C6.15 4.67627 6.17 4.70627 6.19 4.72627C6.3 4.83627 6.39 4.92627 6.48 5.01627C6.6 5.13627 6.66 5.27627 6.66 5.42627C6.66 5.56627 6.6 5.71627 6.48 5.83627C6.48 5.83627 6.48 5.83627 6.47 5.84627L5.97 6.36627C5.8 6.53627 5.59 6.63627 5.34 6.65627C5.01 6.68627 4.67 6.62627 4.25 6.46627C3.58 6.21627 2.96 5.84627 2.29 5.28627C1.49 4.61627 0.85 3.79627 0.4 2.87627C0.23 2.52627 0.03 2.06627 0 1.55627C0 1.52627 0 1.49627 0 1.46627C0 1.14627 0.11 0.896269 0.33 0.686269ZM6.19 5.41627C6.19 5.41627 6.18 5.39627 6.15 5.36627C6.07 5.27627 5.98 5.19627 5.88 5.08627C5.85 5.06627 5.83 5.03627 5.8 5.01627C5.77 4.98627 5.75 4.96627 5.72 4.93627L5.29 4.50627C5.25 4.46627 5.23 4.45627 5.23 4.45627C5.22 4.45627 5.2 4.46627 5.16 4.50627L5.1 4.53627C5.07 4.56627 5.04 4.59627 5.01 4.62627C5.01 4.62627 5.01 4.62627 5 4.63627C4.86 4.77627 4.74 4.89627 4.63 5.01627C4.62 5.02627 4.62 5.03627 4.6 5.04627C4.43 5.20627 4.23 5.25627 4 5.17627H3.99C3.98 5.17627 3.98 5.17627 3.97 5.16627C3.68 5.04627 3.4 4.87627 3.08 4.62627C3.08 4.62627 3.07 4.62627 3.07 4.61627C2.51 4.16627 2.08 3.68627 1.75 3.15627C1.7 3.07627 1.66 2.99627 1.63 2.93627C1.6 2.88627 1.58 2.83627 1.56 2.80627C1.56 2.80627 1.56 2.79627 1.55 2.79627C1.54 2.78627 1.54 2.77627 1.53 2.76627C1.48 2.67627 1.46 2.58627 1.46 2.49627C1.46 2.33627 1.52 2.19627 1.64 2.07627L2.18 1.53627C2.21 1.50627 2.22 1.47627 2.23 1.47627C2.23 1.46627 2.22 1.45627 2.2 1.43627C2.2 1.43627 2.19 1.43627 2.19 1.42627L1.32 0.556269C1.28 0.516269 1.25 0.506268 1.25 0.506268C1.25 0.506268 1.22 0.516269 1.18 0.556269C1.17 0.566269 1.17 0.566268 1.16 0.576268C1.11 0.616268 1.07 0.666268 1.02 0.716268L1 0.736269C0.9 0.836269 0.79 0.946269 0.67 1.05627C0.55 1.16627 0.5 1.29627 0.5 1.46627C0.5 1.48627 0.5 1.50627 0.5 1.52627C0.53 1.95627 0.7 2.35627 0.84 2.66627C1.26 3.52627 1.85 4.28627 2.6 4.90627C3.22 5.42627 3.8 5.77627 4.42 5.99627C4.77 6.12627 5.05 6.17627 5.3 6.15627C5.43 6.14627 5.52 6.10627 5.61 6.01627L6.14 5.48627C6.18 5.44627 6.19 5.41627 6.19 5.41627Z" fill="#2B2A29"/>
</svg>
