<svg width="7" height="7" viewBox="0 0 7 7" fill="none" xmlns="http://www.w3.org/2000/svg">
<path d="M6.62 3.07C6.52 1.43 5.2 0.120002 3.56 0.0100021V0H3.34H3.13V0.0100021C1.48 0.120002 0.169998 1.43 0.0699976 3.07H0.0599976V3.29V3.51H0.0699976C0.179998 5.15 1.49 6.46 3.13 6.57V6.58H3.35H3.57V6.57C5.21 6.46 6.52 5.15 6.63 3.51H6.64V3.29L6.62 3.07ZM2.12 0.720001C1.91 1 1.73 1.35 1.6 1.76H0.939998C1.23 1.31 1.64 0.950001 2.12 0.720001ZM0.709998 2.19H1.48C1.42 2.47 1.38 2.76 1.37 3.07H0.499998C0.529998 2.76 0.599998 2.47 0.709998 2.19ZM0.499998 3.51H1.37C1.38 3.82 1.42 4.11 1.48 4.39H0.709998C0.599998 4.11 0.529998 3.81 0.499998 3.51ZM0.939998 4.82H1.6C1.73 5.22 1.9 5.57 2.12 5.86C1.64 5.63 1.23 5.27 0.939998 4.82ZM3.13 6.11C2.68 5.99 2.29 5.51 2.06 4.82H3.13V6.11ZM3.13 4.38H1.93C1.87 4.11 1.83 3.81 1.82 3.5H3.13V4.38ZM3.13 3.07H1.81C1.82 2.76 1.86 2.47 1.92 2.19H3.12V3.07H3.13ZM3.13 1.76H2.05C2.29 1.08 2.67 0.6 3.12 0.48V1.76H3.13ZM5.75 1.76H5.09C4.96 1.36 4.79 1.01 4.57 0.720001C5.05 0.950001 5.46 1.31 5.75 1.76ZM3.56 0.470001C4.01 0.590001 4.4 1.07 4.63 1.75H3.56V0.470001ZM3.56 2.19H4.76C4.82 2.46 4.86 2.76 4.87 3.07H3.56V2.19ZM3.56 3.51H4.87C4.86 3.82 4.82 4.11 4.76 4.39H3.56V3.51ZM3.56 6.11V4.82H4.63C4.4 5.5 4.01 5.99 3.56 6.11ZM4.57 5.86C4.78 5.58 4.96 5.23 5.09 4.82H5.75C5.46 5.27 5.05 5.63 4.57 5.86ZM5.97 4.38H5.2C5.26 4.1 5.3 3.81 5.31 3.5H6.18C6.16 3.81 6.09 4.11 5.97 4.38ZM5.31 3.07C5.3 2.76 5.26 2.47 5.2 2.19H5.97C6.08 2.46 6.16 2.76 6.18 3.07H5.31Z" fill="#2B2A29"/>
</svg>
