<svg width="45" height="34" viewBox="0 0 45 34" fill="none" xmlns="http://www.w3.org/2000/svg">
<path fill-rule="evenodd" clip-rule="evenodd" d="M1.52079 32.4936H1.17228L1.22508 32.2307C1.25677 32.0791 1.30957 31.9679 1.3835 31.9072C1.45742 31.8466 1.55247 31.8162 1.65808 31.8061L1.6264 31.9578C1.57359 31.9679 1.52079 31.9881 1.48911 32.0285C1.45742 32.0589 1.4363 32.1094 1.41518 32.1802H1.58416L1.52079 32.4936ZM0.93994 32.4936H0.591431L0.644235 32.2307C0.675918 32.0791 0.728722 31.9679 0.802649 31.9072C0.876575 31.8466 0.971623 31.8162 1.07723 31.8061L1.05611 31.9679C1.00331 31.978 0.950501 31.9982 0.918819 32.0387C0.887136 32.069 0.866014 32.1195 0.844892 32.1903H1.00331L0.93994 32.4936ZM1.58416 33.5046H1.94323L2.31286 31.8263H1.95379L1.58416 33.5046ZM2.53464 32.2914H2.86202L2.83034 32.4532C2.91483 32.3824 2.98876 32.3318 3.06268 32.3116C3.13661 32.2813 3.21053 32.2712 3.28446 32.2712C3.39007 32.2712 3.47456 32.3015 3.53792 32.3622C3.60129 32.4228 3.63297 32.4936 3.63297 32.5947C3.63297 32.6351 3.62241 32.716 3.59073 32.8373L3.43231 33.5248H3.0838L3.24222 32.8373C3.26334 32.7362 3.2739 32.6756 3.2739 32.6554C3.2739 32.6149 3.26334 32.5745 3.23166 32.5543C3.19997 32.534 3.16829 32.5138 3.12605 32.5138C3.07324 32.5138 3.02044 32.534 2.95707 32.5745C2.89371 32.6149 2.85146 32.6655 2.80922 32.7362C2.77754 32.7868 2.75642 32.8778 2.72473 33.0294L2.61912 33.5248H2.27061L2.53464 32.2914ZM3.84419 32.534L3.89699 32.2914H4.06597L4.10821 32.0993L4.49896 31.8769L4.41448 32.2914H4.6257L4.57289 32.534H4.36167L4.2455 33.0497C4.22438 33.1406 4.21382 33.1912 4.21382 33.2114C4.21382 33.2417 4.22438 33.2519 4.23494 33.2721C4.25606 33.2822 4.27719 33.2923 4.32999 33.2923C4.34055 33.2923 4.38279 33.2923 4.44616 33.2822L4.39335 33.5248C4.32999 33.5349 4.27719 33.545 4.21382 33.545C4.09765 33.545 4.0026 33.5248 3.9498 33.4743C3.88643 33.4237 3.85475 33.3631 3.85475 33.2822C3.85475 33.2417 3.86531 33.1609 3.89699 33.0193L4.0026 32.534H3.84419ZM5.78739 32.9991C5.79796 32.9384 5.80852 32.8677 5.80852 32.7868C5.80852 32.625 5.76627 32.4936 5.67122 32.4026C5.57618 32.3116 5.46001 32.2611 5.30159 32.2611C5.05869 32.2611 4.8686 32.3521 4.74186 32.5239C4.64682 32.6554 4.59401 32.807 4.59401 32.9688C4.59401 33.1406 4.64682 33.2721 4.75243 33.3833C4.85803 33.4844 4.99533 33.5349 5.1643 33.5349C5.29103 33.5349 5.39664 33.5046 5.50225 33.4439C5.5973 33.3833 5.68179 33.2923 5.74515 33.1811L5.43888 33.1305C5.37552 33.2417 5.28047 33.3024 5.17486 33.3024C5.10094 33.3024 5.04813 33.2822 4.99533 33.2316C4.94252 33.1811 4.9214 33.1204 4.9214 33.0395C4.9214 33.0294 4.9214 33.0193 4.9214 33.0092H5.78739V32.9991ZM5.50225 32.7969H4.96364C4.98477 32.6958 5.01645 32.6149 5.07981 32.5644C5.13262 32.5138 5.19598 32.4835 5.26991 32.4835C5.34384 32.4835 5.39664 32.5037 5.43888 32.5543C5.48113 32.6048 5.50225 32.6655 5.50225 32.7565C5.50225 32.7767 5.50225 32.7868 5.50225 32.7969ZM5.88244 33.5754L6.24151 33.6259C6.24151 33.6563 6.25207 33.6866 6.26263 33.7068C6.2732 33.727 6.29432 33.7371 6.31544 33.7574C6.34712 33.7675 6.3788 33.7776 6.42105 33.7776C6.49497 33.7776 6.55834 33.7675 6.61114 33.7371C6.64283 33.7169 6.67451 33.6765 6.69563 33.636C6.70619 33.6057 6.72731 33.5451 6.74844 33.4439L6.759 33.3833C6.63227 33.4743 6.50554 33.5248 6.36824 33.5248C6.24151 33.5248 6.14646 33.4844 6.06198 33.4035C5.97749 33.3226 5.94581 33.2013 5.94581 33.0395C5.94581 32.898 5.97749 32.7666 6.03029 32.6453C6.0831 32.5239 6.15703 32.4329 6.26263 32.3723C6.35768 32.3116 6.46329 32.2813 6.55834 32.2813C6.64283 32.2813 6.71675 32.3015 6.79068 32.342C6.86461 32.3824 6.91741 32.4431 6.94909 32.5239L6.99134 32.3116H7.31872L7.11807 33.3226C7.08638 33.4844 7.0547 33.5956 7.02302 33.6664C7.0019 33.7371 6.97022 33.7877 6.93853 33.8281C6.90685 33.8686 6.86461 33.8989 6.8118 33.9292C6.759 33.9596 6.70619 33.9798 6.63227 33.9899C6.5689 34 6.49497 34.0101 6.41049 34.0101C6.23095 34.0101 6.09366 33.9798 6.00917 33.9191C5.91412 33.8585 5.87188 33.7675 5.87188 33.6259C5.88244 33.6057 5.88244 33.5855 5.88244 33.5754ZM6.29432 32.9789C6.29432 33.0699 6.31544 33.1406 6.35768 33.1912C6.39993 33.2417 6.45273 33.262 6.5161 33.262C6.57946 33.262 6.63227 33.2417 6.69563 33.2013C6.74844 33.1609 6.80124 33.1002 6.83292 33.0193C6.86461 32.9384 6.87517 32.8576 6.87517 32.7868C6.87517 32.6958 6.85405 32.6351 6.80124 32.5745C6.74844 32.5239 6.69563 32.4936 6.63227 32.4936C6.5689 32.4936 6.5161 32.5138 6.46329 32.5644C6.41049 32.6149 6.36824 32.6857 6.33656 32.7767C6.30488 32.8576 6.29432 32.9182 6.29432 32.9789ZM7.63555 32.2914H7.96294L7.91013 32.5239C8.0263 32.3521 8.15304 32.2611 8.29033 32.2611C8.34313 32.2611 8.39594 32.2712 8.44874 32.3015L8.31145 32.5745C8.27977 32.5644 8.24808 32.5543 8.2164 32.5543C8.15304 32.5543 8.10023 32.5745 8.03687 32.6149C7.9735 32.6554 7.93126 32.716 7.88901 32.7868C7.85733 32.8576 7.82565 32.9688 7.7834 33.1305L7.70948 33.5046H7.37153L7.63555 32.2914ZM8.7022 31.8263H9.04015L8.97679 32.1296H8.62828L8.7022 31.8263ZM8.59659 32.2914L8.33257 33.5046H8.67052L8.93454 32.2914H8.59659ZM9.0824 32.534L9.1352 32.2914H9.30417L9.34642 32.0993L9.73717 31.8769L9.65268 32.2914H9.8639L9.8111 32.534H9.59988L9.48371 33.0497C9.46259 33.1406 9.45203 33.1912 9.45203 33.2114C9.45203 33.2417 9.46259 33.2519 9.47315 33.2721C9.49427 33.2822 9.51539 33.2923 9.5682 33.2923C9.57876 33.2923 9.621 33.2923 9.68437 33.2822L9.63156 33.5248C9.5682 33.5248 9.50483 33.5349 9.44147 33.5349C9.3253 33.5349 9.23025 33.5147 9.17744 33.4642C9.12464 33.4237 9.10352 33.3631 9.10352 33.2822C9.10352 33.2417 9.11408 33.1609 9.14576 33.0193L9.25137 32.534H9.0824ZM9.90615 32.2914L10.1279 33.5046C10.0646 33.6563 9.96951 33.7371 9.8639 33.7371C9.82166 33.7371 9.78997 33.727 9.74773 33.7169L9.71605 33.9596C9.8111 33.9798 9.88502 34 9.95895 34C10.0329 34 10.0962 33.9899 10.149 33.9596C10.2018 33.9393 10.2441 33.8989 10.2863 33.8585C10.318 33.818 10.3708 33.7371 10.4342 33.6259L11.2157 32.2914H10.8566L10.5609 32.8272C10.487 32.9688 10.4236 33.0901 10.3708 33.2215C10.3708 33.1609 10.3497 33.0497 10.3286 32.898L10.2441 32.2914H9.90615ZM11.1418 33.1912H11.4903L11.4375 33.4541C11.4058 33.6057 11.353 33.7068 11.2791 33.7776C11.2051 33.8382 11.1101 33.8686 10.9939 33.8787L11.0256 33.727C11.0784 33.7169 11.1312 33.6967 11.1629 33.6664C11.1946 33.636 11.2157 33.5855 11.2368 33.5248H11.0784L11.1418 33.1912ZM12.8949 32.6351L12.5569 32.6048C12.5992 32.4936 12.6625 32.4127 12.7576 32.3521C12.8526 32.2914 12.9794 32.2611 13.1378 32.2611C13.2962 32.2611 13.4229 32.2914 13.4969 32.3521C13.5708 32.4127 13.613 32.4936 13.613 32.5846C13.613 32.625 13.613 32.6554 13.6025 32.7059C13.5919 32.7464 13.5708 32.8576 13.5285 33.0294C13.4969 33.171 13.4757 33.2721 13.4757 33.3327C13.4757 33.3833 13.4863 33.4439 13.5074 33.5046H13.1695C13.1589 33.4642 13.1483 33.4136 13.1483 33.3631C13.0955 33.4136 13.0427 33.4541 12.9794 33.4844C12.916 33.5147 12.8526 33.5248 12.7787 33.5248C12.6731 33.5248 12.5886 33.4945 12.5147 33.4237C12.4513 33.353 12.4091 33.2721 12.4091 33.171C12.4091 33.0598 12.4513 32.9587 12.5252 32.8879C12.5992 32.8171 12.7365 32.7767 12.9266 32.7565C13.085 32.7464 13.2011 32.7261 13.254 32.7059C13.2645 32.6554 13.2751 32.625 13.2751 32.5947C13.2751 32.5543 13.2645 32.534 13.2328 32.5037C13.2011 32.4835 13.1589 32.4633 13.1061 32.4633C13.0427 32.4633 13.0005 32.4734 12.9582 32.5037C12.9266 32.5543 12.9054 32.5846 12.8949 32.6351ZM13.2223 32.9384C13.2011 32.9486 13.1695 32.9486 13.1378 32.9587C12.9688 32.9789 12.8526 33.0092 12.7998 33.0497C12.7576 33.08 12.747 33.1103 12.747 33.1609C12.747 33.2013 12.7576 33.2316 12.7893 33.262C12.821 33.2923 12.8526 33.3024 12.9054 33.3024C12.9582 33.3024 13.011 33.2923 13.0533 33.262C13.0955 33.2417 13.1378 33.2114 13.1589 33.171C13.18 33.1305 13.2011 33.0699 13.2223 32.989V32.9384ZM14.6163 33.0497L14.9543 33.1002C14.9015 33.2417 14.817 33.353 14.7114 33.4237C14.6057 33.4945 14.479 33.5349 14.3417 33.5349C14.1833 33.5349 14.0566 33.4844 13.9615 33.3934C13.8665 33.3024 13.8242 33.171 13.8242 33.0092C13.8242 32.8778 13.8559 32.7565 13.9087 32.6351C13.9615 32.5138 14.0566 32.4228 14.1727 32.3521C14.2889 32.2813 14.4156 32.251 14.5529 32.251C14.7008 32.251 14.817 32.2914 14.912 32.3622C14.9965 32.4329 15.0493 32.534 15.0599 32.6554L14.7325 32.6857C14.7219 32.6149 14.7008 32.5644 14.6691 32.534C14.6374 32.5037 14.5846 32.4835 14.5318 32.4835C14.4685 32.4835 14.4051 32.5037 14.3417 32.5543C14.2889 32.6048 14.2361 32.6756 14.2044 32.7666C14.1727 32.8576 14.1622 32.9486 14.1622 33.0294C14.1622 33.1002 14.1833 33.1609 14.215 33.1912C14.2467 33.2316 14.2995 33.2519 14.3523 33.2519C14.4051 33.2519 14.4579 33.2316 14.5107 33.1912C14.5529 33.1811 14.5846 33.1204 14.6163 33.0497ZM15.9681 33.0497L16.3061 33.1002C16.2532 33.2417 16.1688 33.353 16.0632 33.4237C15.9575 33.4945 15.8308 33.5349 15.6935 33.5349C15.5351 33.5349 15.4084 33.4844 15.3133 33.3934C15.2183 33.3024 15.176 33.171 15.176 33.0092C15.176 32.8778 15.2077 32.7565 15.2605 32.6351C15.3133 32.5138 15.4084 32.4228 15.5245 32.3521C15.6407 32.2813 15.7674 32.251 15.9047 32.251C16.0526 32.251 16.1688 32.2914 16.2638 32.3622C16.3483 32.4329 16.4011 32.534 16.4117 32.6554L16.0843 32.6857C16.0737 32.6149 16.0526 32.5644 16.0209 32.534C15.9892 32.5037 15.9364 32.4835 15.8836 32.4835C15.8202 32.4835 15.7569 32.5037 15.6935 32.5543C15.6407 32.6048 15.5879 32.6756 15.5562 32.7666C15.5245 32.8576 15.514 32.9486 15.514 33.0294C15.514 33.1002 15.5351 33.1609 15.5668 33.1912C15.5985 33.2316 15.6513 33.2519 15.7041 33.2519C15.7569 33.2519 15.8097 33.2316 15.8625 33.1912C15.9047 33.1811 15.9364 33.1204 15.9681 33.0497ZM17.7001 32.9991H16.8341C16.8341 33.0092 16.8341 33.0193 16.8341 33.0294C16.8341 33.1103 16.8552 33.1811 16.908 33.2215C16.9608 33.2721 17.0136 33.2923 17.0876 33.2923C17.2037 33.2923 17.2882 33.2316 17.3516 33.1204L17.6578 33.171C17.5945 33.2923 17.5206 33.3732 17.4149 33.4338C17.3093 33.4945 17.2037 33.5248 17.077 33.5248C16.908 33.5248 16.7707 33.4743 16.6651 33.3732C16.5595 33.2721 16.5067 33.1305 16.5067 32.9587C16.5067 32.7969 16.5595 32.6453 16.6546 32.5138C16.7813 32.342 16.9714 32.251 17.2143 32.251C17.3727 32.251 17.4889 32.3015 17.5839 32.3925C17.679 32.4835 17.7212 32.6149 17.7212 32.7767C17.7212 32.8677 17.7107 32.9384 17.7001 32.9991ZM17.4044 32.7969C17.4044 32.7868 17.4044 32.7666 17.4044 32.7666C17.4044 32.6756 17.3833 32.6048 17.341 32.5644C17.2988 32.5138 17.246 32.4936 17.172 32.4936C17.0981 32.4936 17.0348 32.5239 16.9819 32.5745C16.9291 32.625 16.8869 32.7059 16.8658 32.807H17.4044V32.7969ZM17.7635 33.171L18.1014 33.1204C18.1331 33.1912 18.1648 33.2316 18.207 33.262C18.2493 33.2923 18.3126 33.3024 18.3865 33.3024C18.4605 33.3024 18.5238 33.2822 18.5766 33.2519C18.6083 33.2316 18.6294 33.2013 18.6294 33.171C18.6294 33.1508 18.6189 33.1305 18.6083 33.1103C18.5872 33.0901 18.545 33.0699 18.471 33.0497C18.2598 32.989 18.1331 32.9283 18.0908 32.898C17.9958 32.8272 17.9536 32.7464 17.9536 32.6554C17.9536 32.5543 17.9958 32.4734 18.0697 32.4026C18.1753 32.3015 18.3232 32.2611 18.5344 32.2611C18.6928 32.2611 18.8195 32.2914 18.904 32.3521C18.9885 32.4127 19.0413 32.4835 19.0624 32.5846L18.7456 32.6351C18.7245 32.5947 18.7034 32.5543 18.6611 32.534C18.6083 32.5037 18.545 32.4936 18.4816 32.4936C18.4077 32.4936 18.3549 32.5037 18.3232 32.5239C18.2915 32.5442 18.2809 32.5745 18.2809 32.6048C18.2809 32.6351 18.3021 32.6655 18.3337 32.6756C18.3549 32.6857 18.4182 32.7059 18.5238 32.7362C18.6928 32.7868 18.7984 32.8272 18.8618 32.8778C18.9463 32.9384 18.978 33.0193 18.978 33.1103C18.978 33.2215 18.9252 33.3226 18.8301 33.4136C18.7245 33.4945 18.5872 33.545 18.4077 33.545C18.2281 33.545 18.0803 33.5147 17.9852 33.4439C17.8691 33.3732 17.8057 33.2822 17.7635 33.171ZM19.1153 33.171L19.4532 33.1204C19.4849 33.1912 19.5166 33.2316 19.5588 33.262C19.6011 33.2923 19.6644 33.3024 19.7383 33.3024C19.8123 33.3024 19.8756 33.2822 19.9284 33.2519C19.9601 33.2316 19.9812 33.2013 19.9812 33.171C19.9812 33.1508 19.9707 33.1305 19.9601 33.1103C19.939 33.0901 19.8968 33.0699 19.8228 33.0497C19.6116 32.989 19.4849 32.9283 19.4426 32.898C19.3687 32.8373 19.3265 32.7565 19.3265 32.6655C19.3265 32.5644 19.3687 32.4835 19.4426 32.4127C19.5482 32.3116 19.6961 32.2712 19.9073 32.2712C20.0657 32.2712 20.1925 32.3015 20.277 32.3622C20.3614 32.4228 20.4142 32.4936 20.4354 32.5947L20.1185 32.6453C20.0974 32.6048 20.0763 32.5644 20.034 32.5442C19.9812 32.5138 19.9179 32.5037 19.8545 32.5037C19.7806 32.5037 19.7278 32.5138 19.6961 32.534C19.6644 32.5543 19.6539 32.5846 19.6539 32.6149C19.6539 32.6453 19.675 32.6756 19.7067 32.6857C19.7278 32.6958 19.7911 32.716 19.8968 32.7464C20.0657 32.7969 20.1713 32.8373 20.2347 32.8879C20.3192 32.9486 20.3509 33.0294 20.3509 33.1204C20.3509 33.2316 20.2981 33.3327 20.203 33.4237C20.0974 33.5046 19.9601 33.5552 19.7806 33.5552C19.6011 33.5552 19.4532 33.5248 19.3582 33.4541C19.2209 33.3732 19.1469 33.2822 19.1153 33.171ZM20.8789 31.8263H21.2169L21.1535 32.1195H20.8156L20.8789 31.8263ZM20.7733 32.2914H21.1218L20.8578 33.5046H20.5199L20.7733 32.2914ZM21.1641 33.5046H21.4703L21.5126 33.3125C21.5971 33.4642 21.7344 33.5349 21.9139 33.5349C21.9878 33.5349 22.0617 33.5147 22.1357 33.4844C22.2096 33.4541 22.273 33.4035 22.3363 33.3428C22.3997 33.2822 22.4525 33.1912 22.4842 33.0901C22.5264 32.989 22.537 32.8778 22.537 32.7666C22.537 32.6048 22.4947 32.4734 22.4208 32.3925C22.3363 32.3015 22.2307 32.2611 22.0934 32.2611C22.0301 32.2611 21.9667 32.2712 21.9139 32.2914C21.8611 32.3116 21.7977 32.342 21.7344 32.3925L21.8611 31.8365H21.5231L21.1641 33.5046ZM21.6287 33.0092C21.6287 32.8475 21.671 32.716 21.7555 32.6048C21.8188 32.5239 21.8928 32.4936 21.9773 32.4936C22.0406 32.4936 22.104 32.5138 22.1462 32.5644C22.1885 32.6149 22.2202 32.6857 22.2202 32.7666C22.2202 32.8576 22.199 32.9486 22.1674 33.0294C22.1357 33.1204 22.0934 33.1811 22.0406 33.2215C21.9878 33.262 21.935 33.2822 21.8716 33.2822C21.8083 33.2822 21.7449 33.2519 21.7027 33.2013C21.6499 33.1609 21.6287 33.0901 21.6287 33.0092ZM22.6637 33.5046L23.0333 31.8263H23.3713L23.0017 33.5046H22.6637ZM23.6987 31.8263H24.0366L23.9733 32.1195H23.6353L23.6987 31.8263ZM23.5931 32.2914L23.3291 33.5046H23.667L23.931 32.2914H23.5931ZM24.0894 32.534L24.1422 32.2914H24.3112L24.3535 32.0993L24.7442 31.8769L24.6597 32.2914H24.8709L24.8181 32.534H24.6069L24.4908 33.0497C24.4696 33.1406 24.4591 33.1912 24.4591 33.2114C24.4591 33.2417 24.4696 33.2519 24.4802 33.2721C24.5013 33.2822 24.5224 33.2923 24.5752 33.2923C24.5858 33.2923 24.628 33.2923 24.6914 33.2822L24.6386 33.5248C24.5752 33.5349 24.5224 33.545 24.4591 33.545C24.3429 33.545 24.2479 33.5248 24.195 33.4743C24.1422 33.4338 24.1106 33.3631 24.1106 33.2923C24.1106 33.2519 24.1211 33.171 24.1528 33.0294L24.2584 32.5442H24.0894V32.534ZM24.9026 32.2914L25.1244 33.5046C25.061 33.6563 24.966 33.7371 24.8604 33.7371C24.8181 33.7371 24.7865 33.727 24.7442 33.7169L24.7125 33.9596C24.8076 33.9798 24.8815 34 24.9554 34C25.0294 34 25.0927 33.9899 25.1455 33.9596C25.1983 33.9393 25.2406 33.8989 25.2828 33.8585C25.3145 33.818 25.3673 33.7371 25.4307 33.6259L26.2122 32.2914H25.8531L25.5468 32.8272C25.4729 32.9688 25.4095 33.0901 25.3567 33.2215C25.3567 33.1609 25.3356 33.0497 25.3145 32.898L25.23 32.2914H24.9026ZM27.3211 32.6351L26.9831 32.6048C27.0254 32.4936 27.0887 32.4127 27.1838 32.3521C27.2788 32.2914 27.4056 32.2611 27.564 32.2611C27.7224 32.2611 27.8491 32.2914 27.923 32.3521C27.997 32.4127 28.0392 32.4936 28.0392 32.5846C28.0392 32.625 28.0392 32.6554 28.0287 32.7059C28.0181 32.7464 27.997 32.8576 27.9547 33.0294C27.923 33.171 27.9019 33.2721 27.9019 33.3327C27.9019 33.3833 27.9125 33.4439 27.9336 33.5046H27.5957C27.5851 33.4642 27.5745 33.4136 27.5745 33.3631C27.5217 33.4136 27.4689 33.4541 27.4056 33.4844C27.3422 33.5147 27.2788 33.5248 27.2049 33.5248C27.0993 33.5248 27.0148 33.4945 26.9409 33.4237C26.8775 33.353 26.8353 33.2721 26.8353 33.171C26.8353 33.0598 26.8775 32.9587 26.9514 32.8879C27.0254 32.8171 27.1627 32.7767 27.3528 32.7565C27.5112 32.7464 27.6273 32.7261 27.6801 32.7059C27.6907 32.6554 27.7013 32.625 27.7013 32.5947C27.7013 32.5543 27.6907 32.534 27.659 32.5037C27.6273 32.4835 27.5851 32.4633 27.5323 32.4633C27.4689 32.4633 27.4267 32.4734 27.3844 32.5037C27.3528 32.5543 27.3316 32.5846 27.3211 32.6351ZM27.6379 32.9384C27.6168 32.9486 27.5851 32.9486 27.5534 32.9587C27.3844 32.9789 27.2683 33.0092 27.2155 33.0497C27.1732 33.08 27.1627 33.1103 27.1627 33.1609C27.1627 33.2013 27.1732 33.2316 27.2049 33.262C27.2366 33.2923 27.2683 33.3024 27.3211 33.3024C27.3739 33.3024 27.4267 33.2923 27.4689 33.262C27.5112 33.2417 27.5534 33.2114 27.5745 33.171C27.5957 33.1305 27.6168 33.0699 27.6379 32.989V32.9384ZM28.4511 32.2914H28.7785L28.7468 32.4532C28.8313 32.3824 28.9052 32.3318 28.9791 32.3116C29.0531 32.2813 29.127 32.2712 29.2009 32.2712C29.3065 32.2712 29.391 32.3015 29.4544 32.3622C29.5177 32.4228 29.5494 32.4936 29.5494 32.5947C29.5494 32.6351 29.5389 32.716 29.5072 32.8373L29.3488 33.5248H29.0108L29.1692 32.8373C29.1904 32.7362 29.2009 32.6756 29.2009 32.6554C29.2009 32.6149 29.1904 32.5745 29.1587 32.5543C29.127 32.534 29.0953 32.5138 29.0531 32.5138C29.0003 32.5138 28.9475 32.534 28.8841 32.5745C28.8207 32.6149 28.7785 32.6655 28.7362 32.7362C28.7045 32.7868 28.6834 32.8778 28.6517 33.0294L28.5461 33.5248H28.2082L28.4511 32.2914ZM30.8379 33.5046H30.5105L30.5421 33.3732C30.4788 33.4338 30.4154 33.4743 30.3626 33.4945C30.2992 33.5147 30.2359 33.5349 30.162 33.5349C30.0352 33.5349 29.9191 33.4945 29.8451 33.4035C29.7606 33.3226 29.7184 33.1912 29.7184 33.0193C29.7184 32.8272 29.7818 32.6453 29.8979 32.4936C30.0141 32.3318 30.1725 32.2611 30.3626 32.2611C30.5316 32.2611 30.6689 32.3217 30.7534 32.4532L30.8907 31.8263H31.2286L30.8379 33.5046ZM30.0458 33.0092C30.0458 33.1002 30.0669 33.1609 30.1197 33.2114C30.162 33.262 30.2253 33.2822 30.2887 33.2822C30.3521 33.2822 30.4154 33.262 30.4682 33.2215C30.521 33.1811 30.5633 33.1204 30.595 33.0294C30.6266 32.9486 30.6478 32.8677 30.6478 32.7868C30.6478 32.6958 30.6266 32.625 30.5738 32.5745C30.521 32.5239 30.4682 32.4936 30.4049 32.4936C30.2992 32.4936 30.2148 32.5442 30.1514 32.6554C30.0775 32.7767 30.0458 32.8879 30.0458 33.0092ZM31.7883 33.171L32.1263 33.1204C32.158 33.1912 32.1896 33.2316 32.2319 33.262C32.2741 33.2923 32.3375 33.3024 32.4114 33.3024C32.4854 33.3024 32.5487 33.2822 32.6015 33.2519C32.6332 33.2316 32.6543 33.2013 32.6543 33.171C32.6543 33.1508 32.6438 33.1305 32.6332 33.1103C32.6121 33.0901 32.5698 33.0699 32.4959 33.0497C32.2847 32.989 32.158 32.9283 32.1157 32.898C32.0418 32.8373 31.9995 32.7565 31.9995 32.6655C31.9995 32.5644 32.0418 32.4835 32.1157 32.4127C32.2213 32.3116 32.3692 32.2712 32.5804 32.2712C32.7388 32.2712 32.8655 32.3015 32.95 32.3622C33.0345 32.4228 33.0873 32.4936 33.1084 32.5947L32.7916 32.6453C32.7705 32.6048 32.7494 32.5644 32.7071 32.5442C32.6543 32.5138 32.591 32.5037 32.5276 32.5037C32.4537 32.5037 32.4009 32.5138 32.3692 32.534C32.3375 32.5543 32.3269 32.5846 32.3269 32.6149C32.3269 32.6453 32.3481 32.6756 32.3797 32.6857C32.4009 32.6958 32.4642 32.716 32.5698 32.7464C32.7388 32.7969 32.8444 32.8373 32.9078 32.8879C32.9923 32.9486 33.024 33.0294 33.024 33.1204C33.024 33.2316 32.9712 33.3327 32.8761 33.4237C32.7705 33.5046 32.6332 33.5552 32.4537 33.5552C32.2741 33.5552 32.1263 33.5248 32.0312 33.4541C31.8834 33.3732 31.82 33.2822 31.7883 33.171ZM33.5414 31.8263H33.8794L33.816 32.1195H33.4781L33.5414 31.8263ZM33.4464 32.2914H33.7843L33.5203 33.5046H33.1824L33.4464 32.2914ZM34.1012 32.2914H34.4286L34.3969 32.4329C34.5236 32.3116 34.6503 32.2611 34.7982 32.2611C34.8932 32.2611 34.9672 32.2813 35.02 32.3217C35.0728 32.3622 35.1045 32.4127 35.115 32.4835C35.1573 32.4228 35.2206 32.3723 35.3051 32.3318C35.3896 32.2914 35.4741 32.2712 35.5586 32.2712C35.6642 32.2712 35.7381 32.3015 35.7909 32.3521C35.8437 32.4026 35.8754 32.4734 35.8754 32.5644C35.8754 32.6048 35.8648 32.6756 35.8437 32.7767L35.6747 33.5147H35.3368L35.5058 32.7767C35.5269 32.6857 35.5375 32.6351 35.5375 32.6149C35.5375 32.5846 35.5269 32.5543 35.5058 32.534C35.4846 32.5138 35.453 32.5037 35.4107 32.5037C35.3262 32.5037 35.2523 32.5442 35.1784 32.6351C35.1256 32.6958 35.0833 32.807 35.0516 32.9688L34.9355 33.5147H34.5975L34.7559 32.7767C34.7771 32.6958 34.7876 32.6351 34.7876 32.6149C34.7876 32.5846 34.7771 32.5543 34.7559 32.534C34.7348 32.5138 34.7031 32.5037 34.6609 32.5037C34.6187 32.5037 34.587 32.5138 34.5447 32.534C34.5025 32.5543 34.4708 32.5846 34.4391 32.625C34.4074 32.6655 34.3863 32.7059 34.3652 32.7666C34.3546 32.7969 34.3335 32.8576 34.3124 32.9587L34.1857 33.5147H33.8477L34.1012 32.2914ZM36.2662 32.2914H36.5935L36.5724 32.4127C36.6463 32.3622 36.7097 32.3217 36.7625 32.2914C36.8259 32.2712 36.8892 32.251 36.9526 32.251C37.0899 32.251 37.1955 32.2914 37.2694 32.3824C37.3539 32.4734 37.3962 32.6048 37.3962 32.7767C37.3962 32.9991 37.3222 33.1811 37.185 33.3327C37.0688 33.4642 36.9209 33.5248 36.7625 33.5248C36.5935 33.5248 36.4668 33.4642 36.3823 33.3327L36.245 33.9596H35.9071L36.2662 32.2914ZM36.4668 32.989C36.4668 33.08 36.4879 33.1609 36.5407 33.2114C36.5935 33.262 36.6463 33.2923 36.7097 33.2923C36.7625 33.2923 36.8259 33.2721 36.8787 33.2316C36.9315 33.1912 36.9737 33.1305 37.0054 33.0294C37.0371 32.9384 37.0582 32.8475 37.0582 32.7767C37.0582 32.6857 37.0371 32.6149 36.9843 32.5644C36.9421 32.5138 36.8787 32.4936 36.8048 32.4936C36.7414 32.4936 36.678 32.5138 36.6252 32.5644C36.5724 32.6048 36.5302 32.6756 36.4985 32.7666C36.4879 32.8475 36.4668 32.9182 36.4668 32.989ZM37.4912 33.5046L37.8608 31.8263H38.1988L37.8292 33.5046H37.4912ZM38.5262 31.8263H38.8641L38.8008 32.1195H38.4628L38.5262 31.8263ZM38.4311 32.2914L38.1671 33.5046H38.5051L38.7691 32.2914H38.4311ZM39.6879 33.0497L40.0258 33.1002C39.973 33.2417 39.8885 33.353 39.7829 33.4237C39.6773 33.4945 39.5506 33.5349 39.4133 33.5349C39.2549 33.5349 39.1282 33.4844 39.0331 33.3934C38.9381 33.3024 38.8958 33.171 38.8958 33.0092C38.8958 32.8778 38.9275 32.7565 38.9803 32.6351C39.0331 32.5138 39.1282 32.4228 39.2443 32.3521C39.3605 32.2813 39.4872 32.251 39.6245 32.251C39.7724 32.251 39.8885 32.2914 39.9836 32.3622C40.0681 32.4329 40.1209 32.534 40.1314 32.6554L39.8041 32.6857C39.7935 32.6149 39.7724 32.5644 39.7407 32.534C39.709 32.5037 39.6562 32.4835 39.6034 32.4835C39.54 32.4835 39.4767 32.5037 39.4133 32.5543C39.3605 32.6048 39.3077 32.6756 39.276 32.7666C39.2443 32.8576 39.2338 32.9486 39.2338 33.0294C39.2338 33.1002 39.2549 33.1609 39.2866 33.1912C39.3183 33.2316 39.3711 33.2519 39.4239 33.2519C39.4767 33.2519 39.5295 33.2316 39.5823 33.1912C39.6245 33.1811 39.6668 33.1204 39.6879 33.0497ZM40.5539 31.8263H40.8918L40.8285 32.1195H40.4905L40.5539 31.8263ZM40.4483 32.2914H40.7862L40.5222 33.5046H40.1842L40.4483 32.2914ZM40.9446 32.534L40.9974 32.2914H41.1664L41.2087 32.0993L41.5994 31.8769L41.5149 32.2914H41.7261L41.6733 32.534H41.4621L41.3459 33.0497C41.3248 33.1406 41.3143 33.1912 41.3143 33.2114C41.3143 33.2417 41.3248 33.2519 41.3354 33.2721C41.3565 33.2822 41.3776 33.2923 41.4304 33.2923C41.441 33.2923 41.4832 33.2923 41.5466 33.2822L41.4938 33.5248C41.4304 33.5349 41.3776 33.545 41.3143 33.545C41.1981 33.545 41.103 33.5248 41.0502 33.4743C40.9974 33.4338 40.9658 33.3631 40.9658 33.2923C40.9658 33.2519 40.9763 33.171 41.008 33.0294L41.1136 32.5442H40.9446V32.534ZM41.7578 32.2914L41.9796 33.5046C41.9162 33.6563 41.8212 33.7371 41.7156 33.7371C41.6733 33.7371 41.6417 33.727 41.5994 33.7169L41.5677 33.9596C41.6628 33.9798 41.7367 34 41.8106 34C41.8846 34 41.9479 33.9899 42.0007 33.9596C42.0535 33.9393 42.0958 33.8989 42.138 33.8585C42.1697 33.818 42.2225 33.7371 42.2859 33.6259L43.0674 32.2914H42.7083L42.402 32.8272C42.3281 32.9688 42.2647 33.0901 42.2119 33.2215C42.2119 33.1609 42.1908 33.0497 42.1697 32.898L42.0852 32.2914H41.7578ZM43.3736 31.8365H43.7222L43.6693 32.0993C43.6377 32.251 43.5849 32.3622 43.5109 32.4228C43.437 32.4835 43.342 32.5138 43.2258 32.5239L43.2575 32.3723C43.3103 32.3622 43.3631 32.342 43.3948 32.3116C43.4264 32.2813 43.4476 32.2307 43.4687 32.1701H43.2997L43.3736 31.8365ZM43.9439 31.8365H44.2924L44.2396 32.0993C44.208 32.251 44.1551 32.3622 44.0812 32.4228C44.0073 32.4835 43.9122 32.5138 43.8066 32.5239L43.8383 32.3723C43.8911 32.3622 43.9439 32.342 43.9756 32.3116C44.0073 32.2813 44.0284 32.2307 44.0495 32.1701H43.8911L43.9439 31.8365Z" fill="#2B2A29"/>
<path fill-rule="evenodd" clip-rule="evenodd" d="M16.6123 18.0767H20.3297L23.7515 5.86381H20.0446L18.471 11.4445L16.908 5.86381H13.1906L11.6276 11.4445L10.0645 5.86381H6.34711L9.76884 18.0767H13.4863L15.0493 12.4859L16.6123 18.0767Z" fill="#2B2A29"/>
<path fill-rule="evenodd" clip-rule="evenodd" d="M20.0446 5.86381H23.7621L25.3251 11.4547L26.8881 5.86381H30.6055L32.1791 11.485C32.9712 8.70473 33.7632 5.92447 34.5131 3.24532L32.6438 3.17455L37.2166 0L39.4978 4.93369L37.9348 4.12489C36.678 8.59352 35.2734 13.5373 34.0167 18.0464L34.0273 18.0767H34.0061H30.3098L28.7468 12.4859L27.1838 18.0767H23.4663L20.0446 5.86381Z" fill="#5BB4E5"/>
<path fill-rule="evenodd" clip-rule="evenodd" d="M45 22.6464C45 22.879 44.9472 23.0812 44.8416 23.2632C44.736 23.4451 44.567 23.6069 44.3347 23.7383C44.1023 23.8698 43.8172 23.9709 43.4687 24.0416C43.1202 24.1124 42.6977 24.1427 42.2225 24.1427H41.7684C41.7578 24.2135 41.7472 24.2843 41.7367 24.355C41.7261 24.4258 41.7261 24.4966 41.7261 24.5572C41.7261 24.81 41.8 25.0122 41.9373 25.1335C42.0746 25.2649 42.2964 25.3256 42.6132 25.3256C42.835 25.3256 43.0251 25.3155 43.2046 25.2852C43.3736 25.2548 43.532 25.2245 43.6588 25.1841C43.7855 25.1436 43.9017 25.1133 43.9862 25.083C44.0706 25.0526 44.134 25.0425 44.1763 25.0425C44.2185 25.0425 44.2396 25.0526 44.2607 25.0728C44.2819 25.0931 44.2819 25.1335 44.2819 25.1739C44.2819 25.2245 44.2819 25.2852 44.2713 25.3559C44.2607 25.4267 44.2502 25.4975 44.2291 25.5581C44.2079 25.6289 44.1868 25.6896 44.1551 25.7502C44.1234 25.8109 44.0918 25.8614 44.0601 25.8918C44.0178 25.9322 43.9439 25.9726 43.8383 26.003C43.7327 26.0434 43.606 26.0737 43.4581 26.1041C43.3103 26.1344 43.1413 26.1647 42.9512 26.185C42.7611 26.2052 42.5816 26.2153 42.3809 26.2153C42.0641 26.2153 41.7895 26.185 41.5466 26.1243C41.3142 26.0636 41.1136 25.9625 40.9552 25.8311C40.7968 25.6997 40.6806 25.5379 40.5961 25.3357C40.5116 25.1335 40.4799 24.8909 40.4799 24.6179C40.4799 24.4056 40.5011 24.1731 40.5433 23.9304C40.5855 23.6878 40.6489 23.4451 40.744 23.2126C40.839 22.9801 40.9552 22.7475 41.103 22.5352C41.2509 22.3229 41.4304 22.1308 41.6311 21.9691C41.8423 21.8073 42.0746 21.6759 42.3492 21.5748C42.6238 21.4737 42.9301 21.4231 43.2786 21.4231C43.5848 21.4231 43.8383 21.4535 44.0601 21.5242C44.2819 21.595 44.4508 21.686 44.5987 21.7972C44.736 21.9084 44.8416 22.0398 44.905 22.1814C44.9683 22.3431 45 22.4948 45 22.6464ZM6.08308 25.8109C6.0514 25.8918 6.00915 25.9524 5.96691 25.9929C5.92467 26.0434 5.8613 26.0737 5.79793 26.094C5.72401 26.1142 5.62896 26.1344 5.52335 26.1344C5.40718 26.1445 5.26989 26.1445 5.10091 26.1445C4.92138 26.1445 4.77353 26.1445 4.66792 26.1344C4.55175 26.1243 4.46726 26.1142 4.4039 26.094C4.34053 26.0737 4.29829 26.0434 4.27716 26.003C4.25604 25.9625 4.24548 25.912 4.23492 25.8412L4.00258 21.8983H3.99202L2.20723 25.8109C2.17555 25.8918 2.1333 25.9524 2.10162 25.9929C2.05938 26.0434 2.01713 26.0737 1.95377 26.094C1.8904 26.1142 1.80591 26.1344 1.70031 26.1344C1.5947 26.1445 1.44684 26.1445 1.27787 26.1445C1.07721 26.1445 0.918798 26.1445 0.802628 26.1344C0.686459 26.1243 0.59141 26.1142 0.528045 26.094C0.46468 26.0737 0.422436 26.0333 0.401314 25.9929C0.380192 25.9423 0.369632 25.8817 0.359071 25.8008L0 20.3818C0 20.2807 0 20.1998 0.0105609 20.1392C0.0211218 20.0785 0.0422436 20.0381 0.0950481 20.0077C0.137292 19.9774 0.211218 19.9572 0.306266 19.9471C0.401314 19.937 0.528045 19.937 0.69702 19.937C0.834311 19.937 0.950481 19.937 1.04553 19.9471C1.14058 19.9572 1.20394 19.9673 1.25675 19.9875C1.29899 20.0077 1.33067 20.0381 1.34123 20.0684C1.3518 20.0987 1.36236 20.1493 1.36236 20.2099L1.48909 24.9111H1.47853L3.65407 20.22C3.68575 20.1594 3.70688 20.1088 3.73856 20.0785C3.77024 20.0381 3.81249 20.0178 3.86529 19.9976C3.91809 19.9774 3.99202 19.9673 4.08707 19.9572C4.18212 19.9471 4.29829 19.9471 4.4567 19.9471C4.60455 19.9471 4.73128 19.9471 4.81577 19.9572C4.90026 19.9673 4.97418 19.9774 5.01643 19.9976C5.05867 20.0178 5.09035 20.0482 5.10091 20.0886C5.11148 20.129 5.12204 20.1796 5.12204 20.2403L5.3755 24.9212H5.38606L7.49824 20.1695C7.51936 20.129 7.54048 20.0886 7.5616 20.0583C7.59329 20.0279 7.63553 20.0077 7.68834 19.9875C7.74114 19.9673 7.81507 19.9572 7.91011 19.9572C8.00516 19.9471 8.12133 19.9471 8.26919 19.9471C8.41704 19.9471 8.52265 19.9572 8.60713 19.9673C8.69162 19.9774 8.74443 19.9976 8.77611 20.0381C8.80779 20.0684 8.80779 20.129 8.78667 20.1897C8.76555 20.2605 8.73387 20.3515 8.68106 20.4627L6.08308 25.8109ZM12.9582 23.1418C12.9582 22.8689 12.916 22.6262 12.8421 22.4139C12.7576 22.2016 12.6414 22.0297 12.483 21.8781C12.3246 21.7365 12.1134 21.6253 11.8705 21.5546C11.6276 21.4838 11.3424 21.4433 11.0045 21.4433C10.6665 21.4433 10.3602 21.4838 10.0857 21.5748C9.81108 21.6658 9.56818 21.7871 9.35696 21.9387C9.14574 22.0904 8.96621 22.2724 8.81835 22.4746C8.65994 22.6768 8.54377 22.8891 8.44872 23.1216C8.35367 23.3541 8.27975 23.5867 8.2375 23.8293C8.19526 24.072 8.17414 24.3045 8.17414 24.537C8.17414 24.81 8.21638 25.0526 8.29031 25.2649C8.37479 25.4772 8.49096 25.6491 8.64938 25.8008C8.80779 25.9423 9.01901 26.0535 9.26191 26.1243C9.50481 26.1951 9.78996 26.2355 10.1279 26.2355C10.4659 26.2355 10.7721 26.1951 11.0467 26.1041C11.3213 26.0131 11.5642 25.8918 11.7754 25.7401C11.9866 25.5885 12.1662 25.4065 12.314 25.2043C12.4619 25.0021 12.5886 24.7898 12.6836 24.5572C12.7787 24.3247 12.8526 24.0922 12.8949 23.8495C12.9371 23.6069 12.9582 23.3643 12.9582 23.1418ZM11.6698 23.2227C11.6698 23.3643 11.6592 23.5159 11.6381 23.6676C11.617 23.8192 11.5747 23.981 11.5325 24.1326C11.4797 24.2843 11.4163 24.4359 11.3424 24.5673C11.2685 24.7089 11.1734 24.8302 11.0678 24.9313C10.9622 25.0425 10.846 25.1234 10.7088 25.1841C10.5715 25.2447 10.4236 25.275 10.2652 25.275C10.1173 25.275 9.99061 25.2548 9.89556 25.2144C9.78996 25.1739 9.71603 25.1234 9.6421 25.0526C9.57874 24.992 9.52593 24.901 9.50481 24.7898C9.47313 24.6887 9.46257 24.5673 9.46257 24.4359C9.46257 24.2944 9.47313 24.1427 9.49425 23.9911C9.51537 23.8293 9.55762 23.6777 9.59986 23.526C9.65266 23.3744 9.71603 23.2328 9.78996 23.0913C9.86388 22.9497 9.95893 22.8284 10.0645 22.7273C10.1701 22.6262 10.2863 22.5352 10.4236 22.4746C10.5609 22.4139 10.7088 22.3836 10.8672 22.3836C11.015 22.3836 11.1418 22.4038 11.2368 22.4442C11.3424 22.4847 11.4163 22.5352 11.4903 22.606C11.5536 22.6768 11.6064 22.7678 11.6276 22.8689C11.6592 22.97 11.6698 23.0913 11.6698 23.2227ZM17.1192 21.6456C17.1192 21.6658 17.1192 21.7062 17.1087 21.7669C17.0981 21.8275 17.0875 21.8882 17.077 21.9691C17.0664 22.05 17.0453 22.1207 17.0242 22.2016C17.0031 22.2825 16.9819 22.3533 16.9608 22.424C16.9397 22.4948 16.908 22.5555 16.8763 22.5959C16.8446 22.6363 16.813 22.6667 16.7707 22.6667C16.739 22.6667 16.7073 22.6566 16.6862 22.6464C16.6545 22.6363 16.6229 22.6262 16.5912 22.6161C16.5595 22.606 16.5173 22.5959 16.475 22.5858C16.4328 22.5757 16.38 22.5656 16.3272 22.5656C16.211 22.5656 16.0948 22.606 15.9681 22.6869C15.8414 22.7678 15.7146 22.879 15.5985 23.0104C15.4823 23.1418 15.3767 23.3036 15.2922 23.4856C15.1971 23.6676 15.1338 23.8495 15.0915 24.0517L14.6902 25.9625C14.6797 25.9929 14.6691 26.0232 14.648 26.0434C14.6268 26.0636 14.5846 26.0838 14.5318 26.1041C14.479 26.1243 14.4156 26.1344 14.3311 26.1445C14.2467 26.1546 14.1516 26.1546 14.0249 26.1546C13.8981 26.1546 13.8031 26.1546 13.7186 26.1445C13.6447 26.1344 13.5813 26.1243 13.5391 26.1041C13.4968 26.0838 13.4651 26.0636 13.4546 26.0434C13.444 26.0232 13.4335 25.9929 13.444 25.9625L14.3311 21.7163C14.3417 21.686 14.3523 21.6557 14.3734 21.6354C14.3945 21.6152 14.4262 21.595 14.479 21.5748C14.5212 21.5647 14.5846 21.5445 14.648 21.5445C14.7219 21.5343 14.8064 21.5343 14.9014 21.5343C15.007 21.5343 15.0915 21.5343 15.1549 21.5445C15.2183 21.5546 15.2711 21.5647 15.3027 21.5748C15.3344 21.5849 15.3661 21.6051 15.3767 21.6354C15.3872 21.6557 15.3872 21.686 15.3872 21.7163L15.2499 22.3937C15.3344 22.2623 15.4189 22.1308 15.5245 22.0196C15.6301 21.9084 15.7357 21.8073 15.8625 21.7264C15.9786 21.6456 16.1054 21.5748 16.2321 21.5242C16.3588 21.4737 16.4856 21.4535 16.6017 21.4535C16.6545 21.4535 16.6968 21.4535 16.7496 21.4636C16.8024 21.4737 16.8446 21.4737 16.8974 21.4838C16.9397 21.4939 16.9819 21.504 17.0136 21.5242C17.0453 21.5343 17.077 21.5546 17.0981 21.5647C17.1087 21.5748 17.1192 21.6051 17.1192 21.6456ZM18.2704 25.9524L19.5694 19.6943C19.5799 19.664 19.5694 19.6337 19.5588 19.6134C19.5482 19.5831 19.5165 19.5629 19.4743 19.5528C19.4321 19.5326 19.3687 19.5224 19.2948 19.5123C19.2208 19.5022 19.1152 19.5022 18.9885 19.5022C18.8618 19.5022 18.7667 19.5022 18.6822 19.5123C18.5977 19.5224 18.5344 19.5326 18.4816 19.5528C18.4288 19.573 18.3865 19.5932 18.3654 19.6134C18.3443 19.6438 18.3232 19.664 18.3232 19.6943L17.0136 25.9524C17.0031 25.9827 17.0136 26.0131 17.0242 26.0333C17.0347 26.0535 17.0664 26.0737 17.1087 26.094C17.1509 26.1142 17.2143 26.1243 17.2882 26.1344C17.3621 26.1445 17.4677 26.1445 17.5945 26.1445C17.7106 26.1445 17.8162 26.1445 17.9007 26.1344C17.9852 26.1243 18.0486 26.1142 18.1014 26.094C18.1542 26.0737 18.1859 26.0535 18.2176 26.0333C18.2492 26.0131 18.2704 25.9827 18.2704 25.9524ZM23.6564 25.9625C23.6459 26.0333 23.5931 26.0737 23.498 26.1041C23.403 26.1344 23.2551 26.1445 23.0544 26.1445C22.9488 26.1445 22.8644 26.1445 22.801 26.1344C22.7376 26.1243 22.6848 26.1142 22.6426 26.1041C22.6003 26.094 22.5792 26.0737 22.5686 26.0434C22.5581 26.0232 22.5581 25.9929 22.5581 25.9524L22.6954 25.275C22.6426 25.3761 22.5686 25.4874 22.4525 25.5986C22.3469 25.7098 22.2096 25.8109 22.0617 25.912C21.9139 26.003 21.7449 26.0839 21.5654 26.1445C21.3858 26.2052 21.1957 26.2355 21.0056 26.2355C20.8155 26.2355 20.6466 26.2153 20.5093 26.1647C20.372 26.1142 20.2452 26.0535 20.1502 25.9726C20.0446 25.8918 19.9601 25.8008 19.8967 25.6896C19.8334 25.5783 19.7806 25.4671 19.7383 25.3458C19.6961 25.2245 19.675 25.1032 19.6538 24.9717C19.6327 24.8403 19.6327 24.719 19.6327 24.5977C19.6327 24.3955 19.6538 24.1731 19.6961 23.9304C19.7383 23.6979 19.8017 23.4552 19.8862 23.2227C19.9707 22.9902 20.0763 22.7678 20.203 22.5453C20.3297 22.333 20.4881 22.1409 20.6677 21.9792C20.8472 21.8174 21.0584 21.686 21.2908 21.5849C21.5231 21.4838 21.7871 21.4332 22.0828 21.4332C22.2096 21.4332 22.3363 21.4434 22.4525 21.4737C22.5686 21.504 22.6743 21.5343 22.7799 21.5849C22.8749 21.6354 22.97 21.686 23.0439 21.7467C23.1284 21.8073 23.1917 21.8781 23.2445 21.9489L23.7198 19.7044C23.7303 19.6741 23.7409 19.6438 23.762 19.6235C23.7831 19.5932 23.8254 19.573 23.8782 19.5629C23.931 19.5427 23.9944 19.5326 24.0789 19.5224C24.1633 19.5123 24.2584 19.5123 24.3851 19.5123C24.5119 19.5123 24.6069 19.5123 24.6914 19.5224C24.7653 19.5326 24.8287 19.5427 24.8709 19.5629C24.9132 19.5831 24.9448 19.6033 24.9554 19.6235C24.966 19.6539 24.9765 19.6741 24.966 19.7044L23.6564 25.9625ZM23.0333 22.9902C22.9172 22.8183 22.7904 22.6869 22.6426 22.5959C22.5053 22.5049 22.3363 22.4645 22.1568 22.4645C22.0195 22.4645 21.8927 22.4948 21.7766 22.5555C21.6604 22.6161 21.5548 22.697 21.4703 22.7981C21.3753 22.8992 21.3013 23.0205 21.2274 23.1621C21.164 23.3036 21.1007 23.4451 21.0584 23.5968C21.0162 23.7484 20.9845 23.9001 20.9528 24.0517C20.9317 24.2034 20.9211 24.3449 20.9211 24.4865C20.9211 24.7291 20.9634 24.9111 21.0479 25.0324C21.1324 25.1537 21.2591 25.2144 21.4386 25.2144C21.5865 25.2144 21.7343 25.1739 21.8822 25.0931C22.03 25.0122 22.1779 24.901 22.3152 24.7594C22.4525 24.6179 22.5686 24.4561 22.6637 24.264C22.7693 24.072 22.8432 23.8698 22.8855 23.6473L23.0333 22.9902ZM32.4642 21.6759C32.4642 21.7264 32.4536 21.777 32.4431 21.8275C32.4325 21.8781 32.4114 21.9286 32.4008 21.9691C32.2741 22.3128 32.1474 22.6566 31.9995 23.0003C31.8517 23.344 31.6933 23.6878 31.5137 24.0214C31.3448 24.355 31.1547 24.6887 30.954 25.0122C30.7533 25.3357 30.5421 25.6491 30.3203 25.9524C30.2887 25.9929 30.2464 26.0333 30.2042 26.0636C30.1514 26.094 30.0986 26.1142 30.0352 26.1243C29.9718 26.1344 29.8874 26.1445 29.8029 26.1546C29.7184 26.1546 29.6128 26.1546 29.5072 26.1546C29.3699 26.1546 29.2537 26.1546 29.1586 26.1445C29.0742 26.1344 29.0002 26.1243 28.9474 26.1041C28.8946 26.0838 28.8629 26.0636 28.8524 26.0232C28.8313 25.9929 28.8207 25.9524 28.8207 25.9019L28.5884 23.2834L27.3633 25.8918C27.3316 25.9423 27.3105 25.9929 27.2788 26.0232C27.2471 26.0535 27.2049 26.0838 27.1415 26.1041C27.0782 26.1243 26.9937 26.1344 26.8986 26.1445C26.793 26.1546 26.6663 26.1546 26.5079 26.1546C26.3494 26.1546 26.2227 26.1546 26.1171 26.1445C26.0115 26.1344 25.9376 26.1243 25.8848 26.1041C25.832 26.0838 25.7897 26.0636 25.7686 26.0232C25.7475 25.9929 25.7369 25.9524 25.7264 25.9019L25.3462 22.0601C25.3462 22.0297 25.3356 21.9893 25.3356 21.9489C25.3356 21.9084 25.3356 21.868 25.3356 21.8376C25.3356 21.777 25.3462 21.7264 25.3567 21.686C25.3673 21.6456 25.399 21.6152 25.4412 21.595C25.4835 21.5748 25.5574 21.5546 25.6419 21.5445C25.7264 21.5343 25.8531 21.5242 26.0009 21.5242C26.1277 21.5242 26.2333 21.5242 26.3072 21.5343C26.3811 21.5445 26.4445 21.5546 26.4867 21.5647C26.529 21.5849 26.5607 21.6051 26.5712 21.6253C26.5818 21.6557 26.5924 21.686 26.5924 21.7264L26.8036 24.8504V24.9111L26.8352 24.8504L28.2927 21.7264C28.3138 21.686 28.3349 21.6557 28.356 21.6253C28.3771 21.595 28.4194 21.5748 28.4616 21.5647C28.5144 21.5445 28.5778 21.5343 28.6517 21.5343C28.7257 21.5242 28.8313 21.5242 28.9474 21.5242C29.0742 21.5242 29.1692 21.5242 29.2431 21.5343C29.3171 21.5445 29.3804 21.5546 29.4227 21.5647C29.4649 21.5748 29.4966 21.595 29.5072 21.6253C29.5283 21.6456 29.5388 21.6759 29.5388 21.7062L29.7923 24.8403V24.8909L29.824 24.8403C29.9507 24.6381 30.0669 24.4157 30.1936 24.1629C30.3203 23.9203 30.4365 23.6574 30.5632 23.3845C30.6794 23.1115 30.7956 22.8385 30.9012 22.5555C31.0068 22.2724 31.1019 21.9994 31.1863 21.7264C31.1969 21.686 31.2075 21.6557 31.2391 21.6253C31.2708 21.595 31.3025 21.5748 31.3553 21.5647C31.4081 21.5445 31.4715 21.5343 31.556 21.5343C31.6405 21.5242 31.7461 21.5242 31.8728 21.5242C31.9995 21.5242 32.0946 21.5242 32.1685 21.5343C32.2424 21.5445 32.3058 21.5546 32.348 21.5647C32.3903 21.5748 32.422 21.595 32.4325 21.6152C32.4536 21.6253 32.4642 21.6456 32.4642 21.6759ZM33.7526 25.9524C33.7421 25.9827 33.7315 26.0131 33.7104 26.0333C33.6893 26.0535 33.647 26.0737 33.5942 26.094C33.5414 26.1142 33.4781 26.1243 33.3936 26.1344C33.3091 26.1445 33.214 26.1445 33.0873 26.1445C32.9606 26.1445 32.8655 26.1445 32.781 26.1344C32.7071 26.1243 32.6437 26.1142 32.6015 26.094C32.5593 26.0737 32.5276 26.0535 32.517 26.0333C32.5065 26.0131 32.4959 25.9827 32.5065 25.9524L33.383 21.7163C33.3936 21.686 33.4041 21.6557 33.4253 21.6354C33.4464 21.6152 33.4886 21.595 33.5414 21.5748C33.5942 21.5546 33.6576 21.5445 33.7421 21.5343C33.8266 21.5242 33.9216 21.5242 34.0483 21.5242C34.1751 21.5242 34.2701 21.5242 34.3546 21.5343C34.4285 21.5445 34.4919 21.5546 34.5341 21.5748C34.5764 21.595 34.6081 21.6152 34.6186 21.6354C34.6292 21.6557 34.6398 21.686 34.6292 21.7163L33.7526 25.9524ZM35.0305 20.2807C35.0094 20.402 34.9777 20.493 34.9355 20.5739C34.8932 20.6548 34.8404 20.7154 34.777 20.766C34.7137 20.8165 34.6292 20.8469 34.5341 20.8671C34.4391 20.8873 34.3229 20.8974 34.1751 20.8974C34.0378 20.8974 33.9216 20.8873 33.8371 20.8671C33.7526 20.8469 33.6787 20.8165 33.6365 20.766C33.5942 20.7154 33.5625 20.6548 33.5625 20.5739C33.552 20.493 33.5625 20.3919 33.5942 20.2807C33.6153 20.1695 33.647 20.0684 33.6893 19.9875C33.7315 19.9066 33.7843 19.846 33.8477 19.7954C33.9111 19.7449 33.9955 19.7044 34.0906 19.6842C34.1856 19.664 34.3018 19.6539 34.4497 19.6539C34.5869 19.6539 34.7031 19.664 34.7876 19.6842C34.8721 19.7044 34.946 19.7449 34.9883 19.7954C35.0305 19.846 35.0622 19.9066 35.0622 19.9875C35.0622 20.0684 35.0516 20.1695 35.0305 20.2807ZM39.1281 25.9625C39.1176 26.0333 39.0648 26.0737 38.9697 26.1041C38.8747 26.1344 38.7268 26.1445 38.5262 26.1445C38.4206 26.1445 38.3361 26.1445 38.2727 26.1344C38.2093 26.1243 38.1565 26.1142 38.1143 26.1041C38.072 26.094 38.0509 26.0737 38.0404 26.0434C38.0298 26.0232 38.0298 25.9929 38.0298 25.9524L38.1671 25.275C38.1143 25.3761 38.0404 25.4874 37.9242 25.5986C37.8186 25.7098 37.6813 25.8109 37.5334 25.912C37.3856 26.003 37.2166 26.0839 37.0371 26.1445C36.8575 26.2052 36.6674 26.2355 36.4774 26.2355C36.2873 26.2355 36.1183 26.2153 35.981 26.1647C35.8437 26.1142 35.717 26.0535 35.6219 25.9726C35.5163 25.8918 35.4318 25.8008 35.3685 25.6896C35.3051 25.5783 35.2523 25.4671 35.21 25.3458C35.1678 25.2245 35.1467 25.1032 35.1256 24.9717C35.1044 24.8403 35.1044 24.719 35.1044 24.5977C35.1044 24.3955 35.1256 24.1731 35.1678 23.9304C35.21 23.6979 35.2734 23.4552 35.3579 23.2227C35.4424 22.9902 35.548 22.7678 35.6747 22.5453C35.8015 22.333 35.9599 22.1409 36.1394 21.9792C36.3189 21.8174 36.5302 21.686 36.7625 21.5849C36.9948 21.4838 37.2589 21.4332 37.5546 21.4332C37.6813 21.4332 37.808 21.4434 37.9242 21.4737C38.0404 21.504 38.146 21.5343 38.2516 21.5849C38.3466 21.6354 38.4417 21.686 38.5156 21.7467C38.6001 21.8073 38.6635 21.8781 38.7163 21.9489L39.1915 19.7044C39.2021 19.6741 39.2126 19.6438 39.2337 19.6235C39.2549 19.5932 39.2971 19.573 39.3499 19.5629C39.4027 19.5427 39.4661 19.5326 39.5506 19.5224C39.6351 19.5123 39.7301 19.5123 39.8568 19.5123C39.9836 19.5123 40.0786 19.5123 40.1631 19.5224C40.237 19.5326 40.3004 19.5427 40.3426 19.5629C40.3849 19.5831 40.4166 19.6033 40.4271 19.6235C40.4377 19.6539 40.4483 19.6741 40.4377 19.7044L39.1281 25.9625ZM38.505 22.9902C38.3889 22.8183 38.2621 22.6869 38.1143 22.5959C37.977 22.5049 37.808 22.4645 37.6285 22.4645C37.4912 22.4645 37.3645 22.4948 37.2483 22.5555C37.1321 22.6161 37.0265 22.697 36.942 22.7981C36.847 22.8992 36.7731 23.0205 36.6991 23.1621C36.6358 23.3036 36.5724 23.4451 36.5302 23.5968C36.4879 23.7484 36.4562 23.9001 36.4245 24.0517C36.4034 24.2034 36.3929 24.3449 36.3929 24.4865C36.3929 24.7291 36.4351 24.9111 36.5196 25.0324C36.6041 25.1537 36.7308 25.2144 36.9104 25.2144C37.0582 25.2144 37.2061 25.1739 37.3539 25.0931C37.5018 25.0122 37.6496 24.901 37.7869 24.7594C37.9242 24.6179 38.0404 24.4561 38.1354 24.264C38.241 24.072 38.3149 23.8698 38.3572 23.6473L38.505 22.9902ZM43.7749 22.7374C43.7749 22.606 43.7221 22.5049 43.6165 22.424C43.5109 22.3431 43.3631 22.3027 43.1624 22.3027C42.9934 22.3027 42.8456 22.333 42.7188 22.3836C42.5921 22.4442 42.4759 22.515 42.3703 22.6161C42.2753 22.7172 42.1802 22.8284 42.1169 22.9599C42.0429 23.0913 41.9901 23.2328 41.9479 23.3845H42.3703C42.6344 23.3845 42.8561 23.3643 43.0357 23.3339C43.2152 23.3036 43.3631 23.253 43.4687 23.2025C43.5743 23.1418 43.6588 23.0812 43.7116 23.0003C43.7433 22.9093 43.7749 22.8183 43.7749 22.7374Z" fill="#5BB4E5"/>
<path fill-rule="evenodd" clip-rule="evenodd" d="M16.8552 27.57C16.8552 27.5801 16.8552 27.6004 16.8552 27.6206C16.8552 27.6408 16.8446 27.6711 16.8446 27.7015C16.8446 27.7318 16.8341 27.752 16.8235 27.7823C16.8129 27.8127 16.8024 27.8329 16.7918 27.8632C16.7813 27.8834 16.7707 27.9037 16.7601 27.9239C16.7496 27.934 16.7285 27.9441 16.7179 27.9441C16.6968 27.9441 16.6651 27.934 16.6334 27.9138C16.6017 27.8935 16.5595 27.8733 16.5067 27.8531C16.4539 27.8329 16.4011 27.8127 16.3377 27.7924C16.2743 27.7722 16.2004 27.7621 16.1159 27.7621C16.0314 27.7621 15.9575 27.7722 15.8942 27.7924C15.8308 27.8127 15.7885 27.843 15.7463 27.8834C15.7041 27.9239 15.6829 27.9643 15.6618 28.0048C15.6407 28.0553 15.6301 28.0957 15.6301 28.1463C15.6301 28.1968 15.6407 28.2474 15.6724 28.2878C15.7041 28.3283 15.7357 28.3687 15.7885 28.4092C15.8413 28.4496 15.8941 28.4799 15.9575 28.5103C16.0209 28.5406 16.0842 28.581 16.1476 28.6114C16.211 28.6518 16.2743 28.6922 16.3377 28.7327C16.4011 28.7731 16.4539 28.8237 16.5067 28.8843C16.5595 28.945 16.5912 29.0056 16.6229 29.0865C16.6545 29.1573 16.6651 29.2483 16.6651 29.3393C16.6651 29.4808 16.6334 29.6123 16.57 29.7437C16.5067 29.865 16.4222 29.9762 16.3166 30.0672C16.2004 30.1582 16.0737 30.229 15.9153 30.2795C15.7569 30.3301 15.5773 30.3604 15.3872 30.3604C15.2816 30.3604 15.1866 30.3503 15.1021 30.3402C15.0176 30.32 14.9331 30.2997 14.8697 30.2795C14.8064 30.2593 14.743 30.229 14.7008 30.2087C14.6585 30.1885 14.6163 30.1582 14.5952 30.138C14.574 30.1178 14.5635 30.0773 14.5635 30.0369C14.5635 30.0268 14.5635 30.0065 14.5635 29.9863C14.5635 29.9661 14.574 29.9358 14.574 29.9054C14.5846 29.8751 14.5846 29.8448 14.5952 29.8145C14.6057 29.7841 14.6163 29.7538 14.6268 29.7336C14.6374 29.7134 14.648 29.6931 14.6585 29.6729C14.6691 29.6628 14.6902 29.6527 14.7008 29.6527C14.7325 29.6527 14.7641 29.6628 14.7958 29.6931C14.8381 29.7134 14.8803 29.7437 14.9331 29.774C14.9859 29.8043 15.0598 29.8246 15.1338 29.8549C15.2077 29.8751 15.3027 29.8953 15.4083 29.8953C15.5034 29.8953 15.5879 29.8852 15.6618 29.865C15.7357 29.8448 15.7885 29.8145 15.8413 29.774C15.8942 29.7336 15.9258 29.6931 15.947 29.6325C15.9681 29.5819 15.9892 29.5213 15.9892 29.4606C15.9892 29.3999 15.9786 29.3494 15.947 29.3089C15.9153 29.2685 15.8836 29.2281 15.8308 29.1876C15.7885 29.1472 15.7252 29.1169 15.6724 29.0865C15.609 29.0562 15.5562 29.0259 15.4928 28.9854C15.4295 28.945 15.3661 28.9045 15.3133 28.8641C15.2499 28.8237 15.1971 28.7731 15.1549 28.7125C15.1126 28.6518 15.0704 28.5911 15.0387 28.5103C15.007 28.4395 14.9965 28.3485 14.9965 28.2474C14.9965 28.1059 15.0282 27.9845 15.081 27.8632C15.1338 27.752 15.2183 27.6509 15.3239 27.5599C15.4295 27.479 15.5456 27.4083 15.6935 27.3678C15.8308 27.3173 15.9892 27.2971 16.1582 27.2971C16.2427 27.2971 16.3166 27.3072 16.3905 27.3173C16.4644 27.3274 16.5278 27.3476 16.5912 27.3577C16.6545 27.3779 16.6968 27.3982 16.739 27.4184C16.7813 27.4386 16.8129 27.4588 16.8235 27.4689C16.8446 27.479 16.8552 27.4993 16.8552 27.5094C16.8552 27.5296 16.8552 27.5498 16.8552 27.57ZM19.1575 28.6316C19.1575 28.7428 19.1363 28.8439 19.0835 28.9248C19.0307 29.0158 18.9463 29.0865 18.8406 29.1472C18.735 29.2078 18.5977 29.2584 18.4288 29.2887C18.2598 29.3191 18.0591 29.3393 17.8268 29.3393H17.605C17.5945 29.3696 17.5945 29.4101 17.5945 29.4404C17.5945 29.4707 17.5945 29.5111 17.5945 29.5314C17.5945 29.6527 17.6261 29.7437 17.6895 29.8145C17.7529 29.8751 17.8585 29.9054 18.0169 29.9054C18.1225 29.9054 18.2175 29.8953 18.302 29.8852C18.3865 29.8751 18.4605 29.8549 18.5238 29.8347C18.5872 29.8145 18.64 29.8043 18.6822 29.7841C18.7245 29.774 18.7562 29.7639 18.7773 29.7639C18.7984 29.7639 18.809 29.774 18.8195 29.7841C18.8301 29.7942 18.8301 29.8145 18.8301 29.8347C18.8301 29.865 18.8301 29.8852 18.8195 29.9257C18.8195 29.956 18.809 29.9964 18.7984 30.0268C18.7878 30.0571 18.7773 30.0874 18.7667 30.1178C18.7562 30.1481 18.735 30.1683 18.7245 30.1885C18.7033 30.2087 18.6717 30.229 18.6189 30.2391C18.5661 30.2593 18.5027 30.2694 18.4393 30.2896C18.3654 30.2997 18.2915 30.32 18.1964 30.3301C18.1014 30.3402 18.0169 30.3402 17.9218 30.3402C17.7634 30.3402 17.6367 30.32 17.5205 30.2896C17.4044 30.2593 17.3093 30.2087 17.2354 30.1481C17.1615 30.0874 17.0981 30.0065 17.0664 29.9054C17.0242 29.8043 17.0136 29.6931 17.0136 29.5617C17.0136 29.4606 17.0242 29.3494 17.0453 29.2382C17.0664 29.1169 17.0981 29.0056 17.1403 28.8944C17.1826 28.7832 17.2459 28.672 17.3093 28.5709C17.3832 28.4698 17.4677 28.3788 17.5628 28.2979C17.6684 28.2171 17.774 28.1564 17.9113 28.1059C18.038 28.0553 18.1964 28.0351 18.3548 28.0351C18.5027 28.0351 18.6294 28.0553 18.7245 28.0856C18.8301 28.116 18.9146 28.1665 18.9779 28.2171C19.0413 28.2676 19.0941 28.3384 19.1258 28.399C19.1363 28.49 19.1575 28.5608 19.1575 28.6316ZM18.5661 28.672C18.5661 28.6114 18.5449 28.5608 18.4921 28.5204C18.4393 28.4799 18.3654 28.4597 18.2809 28.4597C18.1964 28.4597 18.1331 28.4698 18.0697 28.5001C18.0063 28.5305 17.9535 28.5608 17.9007 28.6114C17.8585 28.6619 17.8162 28.7125 17.774 28.7731C17.7423 28.8338 17.7106 28.9045 17.6895 28.9753H17.8902C18.0169 28.9753 18.1225 28.9652 18.207 28.9551C18.2915 28.9349 18.3654 28.9147 18.4182 28.8944C18.471 28.8641 18.5133 28.8338 18.5344 28.7933C18.5555 28.763 18.5661 28.7226 18.5661 28.672ZM21.1112 28.1564C21.1112 28.1665 21.1112 28.1867 21.1112 28.2171C21.1112 28.2474 21.1007 28.2777 21.1007 28.3182C21.0901 28.3586 21.0901 28.3889 21.0796 28.4294C21.069 28.4698 21.0584 28.5001 21.0479 28.5406C21.0373 28.5709 21.0267 28.6012 21.0056 28.6215C20.9951 28.6417 20.9739 28.6518 20.9528 28.6518C20.9423 28.6518 20.9211 28.6518 20.9106 28.6417C20.9 28.6316 20.8789 28.6316 20.8578 28.6215C20.8367 28.6114 20.8261 28.6114 20.805 28.6012C20.7838 28.5911 20.7627 28.5911 20.731 28.5911C20.6782 28.5911 20.6149 28.6114 20.5621 28.6518C20.4987 28.6922 20.4459 28.7428 20.3825 28.8136C20.3297 28.8742 20.2769 28.9551 20.2347 29.036C20.1924 29.127 20.1608 29.218 20.1396 29.3089L19.9495 30.229C19.9495 30.2391 19.939 30.2593 19.9284 30.2694C19.9179 30.2795 19.8967 30.2896 19.8756 30.2997C19.8545 30.3098 19.8228 30.3098 19.7806 30.32C19.7383 30.32 19.6961 30.3301 19.6327 30.3301C19.5693 30.3301 19.5271 30.3301 19.4849 30.32C19.4532 30.32 19.4215 30.3098 19.4004 30.2997C19.3792 30.2896 19.3687 30.2795 19.3581 30.2694C19.3476 30.2593 19.3476 30.2492 19.3581 30.229L19.7806 28.1766C19.7806 28.1665 19.7911 28.1463 19.8017 28.1362C19.8122 28.1261 19.8334 28.116 19.8545 28.1059C19.8756 28.0957 19.9073 28.0957 19.939 28.0856C19.9707 28.0856 20.0129 28.0755 20.0657 28.0755C20.1185 28.0755 20.1608 28.0755 20.1819 28.0856C20.2136 28.0856 20.2347 28.0957 20.2558 28.1059C20.2769 28.116 20.2875 28.1261 20.2875 28.1362C20.298 28.1463 20.298 28.1564 20.2875 28.1766L20.2241 28.5001C20.2664 28.4395 20.3086 28.3788 20.3614 28.3182C20.4142 28.2676 20.467 28.2171 20.5198 28.1766C20.5726 28.1362 20.636 28.1059 20.6994 28.0856C20.7627 28.0654 20.8155 28.0553 20.8789 28.0553C20.9 28.0553 20.9317 28.0553 20.9528 28.0553C20.9739 28.0553 21.0056 28.0654 21.0267 28.0654C21.0479 28.0654 21.069 28.0755 21.0796 28.0856C21.1007 28.0957 21.1112 28.0957 21.1218 28.1059C21.1112 28.116 21.1112 28.1362 21.1112 28.1564ZM23.403 28.1665C23.403 28.1867 23.403 28.207 23.3924 28.2272C23.3924 28.2474 23.3818 28.2777 23.3713 28.3081C23.3079 28.4698 23.2445 28.6417 23.1706 28.8034C23.0967 28.9652 23.0228 29.1371 22.9383 29.2988C22.8538 29.4606 22.7587 29.6224 22.6637 29.774C22.5581 29.9257 22.4525 30.0773 22.3363 30.229C22.3257 30.2492 22.3046 30.2694 22.2835 30.2795C22.2624 30.2896 22.2307 30.2997 22.199 30.3098C22.1673 30.32 22.1251 30.32 22.0828 30.32C22.0406 30.32 21.9878 30.32 21.935 30.32C21.8505 30.32 21.7766 30.32 21.7238 30.3098C21.671 30.3098 21.6287 30.2997 21.6076 30.2896C21.5759 30.2795 21.5654 30.2694 21.5548 30.2492C21.5442 30.229 21.5442 30.2087 21.5337 30.1885L21.2802 28.3485C21.2802 28.3283 21.2802 28.2979 21.2802 28.2777C21.2802 28.2575 21.2802 28.2373 21.2802 28.2171C21.2802 28.1867 21.2802 28.1665 21.2908 28.1463C21.3013 28.1261 21.3119 28.116 21.333 28.1059C21.3541 28.0957 21.3858 28.0856 21.4281 28.0856C21.4703 28.0856 21.5231 28.0755 21.5865 28.0755C21.6498 28.0755 21.7026 28.0755 21.7343 28.0755C21.766 28.0755 21.7977 28.0856 21.8188 28.0957C21.8399 28.1059 21.8505 28.116 21.8611 28.1261C21.8716 28.1362 21.8716 28.1564 21.8716 28.1766L22.0512 29.683V29.7437L22.0617 29.7235C22.1462 29.6021 22.2201 29.4909 22.2835 29.3696C22.3469 29.2483 22.4102 29.127 22.4736 29.0056C22.5264 28.8843 22.5792 28.7529 22.632 28.6114C22.6848 28.4799 22.7271 28.3384 22.7799 28.1867C22.7799 28.1665 22.7904 28.1463 22.801 28.1362C22.8115 28.1261 22.8327 28.116 22.8538 28.1059C22.8749 28.0957 22.9171 28.0957 22.9488 28.0856C22.9911 28.0856 23.0439 28.0856 23.0967 28.0856C23.1601 28.0856 23.2023 28.0856 23.2445 28.0856C23.2868 28.0856 23.3079 28.0957 23.329 28.0957C23.3501 28.1059 23.3607 28.1059 23.3713 28.116C23.403 28.1463 23.403 28.1564 23.403 28.1665ZM24.6386 27.4891C24.628 27.5498 24.6069 27.5902 24.5963 27.6307C24.5752 27.6711 24.5541 27.7015 24.5224 27.7217C24.4907 27.7419 24.4485 27.7621 24.4062 27.7722C24.364 27.7823 24.3006 27.7823 24.2373 27.7823C24.1739 27.7823 24.1211 27.7823 24.0788 27.7722C24.0366 27.7621 24.0049 27.7419 23.9838 27.7217C23.9627 27.7015 23.9521 27.6711 23.9416 27.6307C23.9416 27.5902 23.9416 27.5397 23.9521 27.4891C23.9627 27.4386 23.9732 27.388 23.9944 27.3476C24.0155 27.3072 24.0366 27.2768 24.0683 27.2566C24.1 27.2364 24.1422 27.2162 24.1845 27.2061C24.2267 27.196 24.2901 27.1858 24.3534 27.1858C24.4168 27.1858 24.4802 27.196 24.5224 27.2061C24.5646 27.2162 24.5963 27.2364 24.6175 27.2566C24.6386 27.2768 24.6491 27.3072 24.6491 27.3476C24.6597 27.388 24.6491 27.4386 24.6386 27.4891ZM24.0155 30.229C24.0155 30.2391 24.0049 30.2593 23.9944 30.2694C23.9838 30.2795 23.9627 30.2896 23.9416 30.2997C23.9204 30.3098 23.8888 30.3098 23.8465 30.32C23.8043 30.32 23.762 30.3301 23.6987 30.3301C23.6353 30.3301 23.593 30.3301 23.5508 30.32C23.5191 30.32 23.4874 30.3098 23.4663 30.2997C23.4452 30.2896 23.4346 30.2795 23.4241 30.2694C23.4135 30.2593 23.4135 30.2492 23.4241 30.229L23.8465 28.1867C23.8465 28.1766 23.8571 28.1564 23.8676 28.1463C23.8782 28.1362 23.8993 28.1261 23.9204 28.116C23.9416 28.1059 23.9732 28.1059 24.0155 28.0957C24.0577 28.0957 24.1 28.0856 24.1633 28.0856C24.2267 28.0856 24.2689 28.0856 24.3112 28.0957C24.3534 28.0957 24.3746 28.1059 24.3957 28.116C24.4168 28.1261 24.4274 28.1362 24.4379 28.1463C24.4485 28.1564 24.4485 28.1665 24.4379 28.1867L24.0155 30.229ZM26.5818 28.3182C26.5818 28.3485 26.5818 28.3889 26.5712 28.4395C26.5607 28.4799 26.5501 28.5305 26.5395 28.5608C26.529 28.6012 26.5079 28.6316 26.4867 28.6619C26.4656 28.6922 26.4445 28.7023 26.4128 28.7023C26.3917 28.7023 26.3706 28.6922 26.3389 28.672C26.3178 28.6518 26.2861 28.6316 26.2544 28.6114C26.2227 28.5911 26.1805 28.5709 26.1277 28.5507C26.0749 28.5305 26.0115 28.5204 25.9376 28.5204C25.8531 28.5204 25.7792 28.5406 25.7158 28.5709C25.6524 28.6012 25.5891 28.6518 25.5468 28.7125C25.494 28.763 25.4623 28.8338 25.4306 28.9045C25.399 28.9753 25.3778 29.0461 25.3462 29.1169C25.325 29.1876 25.3145 29.2584 25.3039 29.3292C25.2934 29.3999 25.2934 29.4505 25.2934 29.501C25.2934 29.6224 25.325 29.7235 25.3778 29.7841C25.4306 29.8448 25.5257 29.8852 25.6419 29.8852C25.7263 29.8852 25.8108 29.8751 25.8742 29.8549C25.9376 29.8347 25.9904 29.8043 26.0432 29.7841C26.0854 29.7538 26.1277 29.7336 26.1593 29.7133C26.191 29.6931 26.2227 29.683 26.2544 29.683C26.265 29.683 26.2861 29.6931 26.2861 29.7032C26.2966 29.7133 26.2966 29.7336 26.2966 29.7639C26.2966 29.7942 26.2966 29.8246 26.2861 29.865C26.2755 29.9054 26.2755 29.9459 26.265 29.9863C26.2544 30.0268 26.2438 30.0672 26.2333 30.0975C26.2227 30.1279 26.2016 30.1582 26.1805 30.1784C26.1593 30.1986 26.1277 30.2189 26.0749 30.2492C26.0326 30.2694 25.9798 30.2997 25.9164 30.32C25.8531 30.3402 25.7897 30.3503 25.7158 30.3705C25.6419 30.3806 25.5679 30.3907 25.494 30.3907C25.2194 30.3907 25.0188 30.32 24.8815 30.1885C24.7442 30.0571 24.6808 29.865 24.6808 29.6021C24.6808 29.5112 24.6914 29.41 24.7125 29.2988C24.7336 29.1876 24.7653 29.0764 24.8076 28.9652C24.8498 28.854 24.9026 28.7428 24.966 28.6417C25.0293 28.5406 25.1138 28.4395 25.2089 28.3586C25.3039 28.2777 25.4201 28.2171 25.5468 28.1665C25.6735 28.116 25.8214 28.0957 25.9798 28.0957C26.0432 28.0957 26.1065 28.0957 26.1699 28.1059C26.2333 28.116 26.2861 28.1261 26.3389 28.1463C26.3917 28.1665 26.4339 28.1867 26.4762 28.207C26.5184 28.2272 26.5395 28.2474 26.5607 28.2676C26.5818 28.2878 26.5923 28.2979 26.5923 28.3182C26.5818 28.2878 26.5818 28.2979 26.5818 28.3182ZM28.8313 28.6316C28.8313 28.7428 28.8101 28.8439 28.7573 28.9248C28.7045 29.0158 28.62 29.0865 28.5144 29.1472C28.4088 29.2078 28.2715 29.2584 28.1026 29.2887C27.9336 29.3191 27.7329 29.3393 27.5006 29.3393H27.2788C27.2682 29.3696 27.2682 29.4101 27.2682 29.4404C27.2682 29.4707 27.2682 29.5111 27.2682 29.5314C27.2682 29.6527 27.2999 29.7437 27.3633 29.8145C27.4267 29.8751 27.5323 29.9054 27.6907 29.9054C27.7963 29.9054 27.8913 29.8953 27.9758 29.8852C28.0603 29.8751 28.1342 29.8549 28.1976 29.8347C28.261 29.8145 28.3138 29.8043 28.356 29.7841C28.3983 29.774 28.4299 29.7639 28.4511 29.7639C28.4722 29.7639 28.4827 29.774 28.4933 29.7841C28.5039 29.7942 28.5039 29.8145 28.5039 29.8347C28.5039 29.865 28.5039 29.8852 28.4933 29.9257C28.4933 29.956 28.4827 29.9964 28.4722 30.0268C28.4616 30.0571 28.4511 30.0874 28.4405 30.1178C28.4299 30.1481 28.4088 30.1683 28.3983 30.1885C28.3771 30.2087 28.3455 30.229 28.2926 30.2391C28.2398 30.2593 28.1765 30.2694 28.1131 30.2896C28.0392 30.2997 27.9653 30.32 27.8702 30.3301C27.7752 30.3402 27.6907 30.3402 27.5956 30.3402C27.4372 30.3402 27.3105 30.32 27.1943 30.2896C27.0781 30.2593 26.9831 30.2087 26.9092 30.1481C26.8352 30.0874 26.7719 30.0065 26.7402 29.9054C26.698 29.8043 26.6874 29.6931 26.6874 29.5617C26.6874 29.4606 26.698 29.3494 26.7191 29.2382C26.7402 29.1169 26.7719 29.0056 26.8141 28.8944C26.8564 28.7832 26.9197 28.672 26.9831 28.5709C27.057 28.4698 27.1415 28.3788 27.2366 28.2979C27.3422 28.2171 27.4478 28.1564 27.5851 28.1059C27.7118 28.0553 27.8702 28.0351 28.0286 28.0351C28.1765 28.0351 28.3032 28.0553 28.3983 28.0856C28.5039 28.116 28.5884 28.1665 28.6517 28.2171C28.7151 28.2676 28.7679 28.3384 28.7996 28.399C28.8101 28.49 28.8313 28.5608 28.8313 28.6316ZM28.2398 28.672C28.2398 28.6114 28.2187 28.5608 28.1659 28.5204C28.1131 28.4799 28.0392 28.4597 27.9547 28.4597C27.8702 28.4597 27.8068 28.4698 27.7435 28.5001C27.6801 28.5305 27.6273 28.5608 27.5745 28.6114C27.5323 28.6619 27.49 28.7125 27.4478 28.7731C27.4161 28.8338 27.3844 28.9045 27.3633 28.9753H27.5639C27.6907 28.9753 27.7963 28.9652 27.8808 28.9551C27.9653 28.9349 28.0392 28.9147 28.092 28.8944C28.1448 28.8641 28.187 28.8338 28.2082 28.7933C28.2293 28.763 28.2398 28.7226 28.2398 28.672ZM30.7745 28.2777C30.7745 28.2979 30.7745 28.3182 30.7639 28.3586C30.7533 28.399 30.7533 28.4294 30.7428 28.4698C30.7322 28.5103 30.7217 28.5406 30.7005 28.5608C30.69 28.5911 30.6689 28.6012 30.6477 28.6012C30.6266 28.6012 30.6055 28.5911 30.5738 28.581C30.5421 28.5709 30.5104 28.5507 30.4682 28.5305C30.426 28.5103 30.3837 28.5001 30.3309 28.4799C30.2781 28.4698 30.2147 28.4597 30.1408 28.4597C30.088 28.4597 30.0352 28.4698 29.993 28.4799C29.9507 28.49 29.9085 28.5103 29.8873 28.5406C29.8557 28.5608 29.8345 28.5911 29.824 28.6215C29.8134 28.6518 29.8029 28.6821 29.8029 28.7226C29.8029 28.7731 29.824 28.8136 29.8662 28.8439C29.9085 28.8742 29.9613 28.9045 30.0141 28.9349C30.0774 28.9652 30.1408 28.9955 30.2147 29.0259C30.2887 29.0562 30.352 29.0966 30.4154 29.1371C30.4788 29.1876 30.521 29.2382 30.5632 29.3089C30.6055 29.3696 30.6266 29.4606 30.6266 29.5516C30.6266 29.6729 30.6055 29.774 30.5527 29.8751C30.5104 29.9762 30.4365 30.0571 30.352 30.1279C30.2675 30.1986 30.1514 30.2593 30.0246 30.2997C29.8979 30.3402 29.7501 30.3604 29.5916 30.3604C29.5177 30.3604 29.4438 30.3503 29.3699 30.3402C29.2959 30.3301 29.2431 30.32 29.1798 30.2997C29.127 30.2896 29.0742 30.2694 29.0425 30.2492C29.0002 30.229 28.9791 30.2087 28.958 30.1986C28.9474 30.1885 28.9369 30.1784 28.9263 30.1582C28.9157 30.1481 28.9157 30.1279 28.9157 30.1076C28.9157 30.0975 28.9157 30.0773 28.9157 30.0571C28.9157 30.0369 28.9263 30.0167 28.9263 29.9863C28.9369 29.956 28.9369 29.9358 28.9474 29.9054C28.958 29.8751 28.958 29.8549 28.9685 29.8347C28.9791 29.8145 28.9897 29.7942 29.0002 29.7841C29.0108 29.774 29.0213 29.7639 29.0319 29.7639C29.053 29.7639 29.0742 29.774 29.1058 29.7942C29.1375 29.8144 29.1692 29.8347 29.2114 29.8549C29.2537 29.8751 29.3065 29.8953 29.3699 29.9156C29.4332 29.9358 29.5072 29.9459 29.6022 29.9459C29.6656 29.9459 29.7289 29.9358 29.7712 29.9257C29.824 29.9156 29.8557 29.8953 29.8873 29.865C29.919 29.8347 29.9401 29.8043 29.9613 29.774C29.9718 29.7437 29.9824 29.7032 29.9824 29.6628C29.9824 29.6123 29.9613 29.5617 29.919 29.5314C29.8768 29.501 29.8345 29.4707 29.7712 29.4404C29.7078 29.4101 29.6444 29.3797 29.5811 29.3494C29.5072 29.3191 29.4438 29.2786 29.391 29.2382C29.3276 29.1977 29.2854 29.1371 29.2431 29.0764C29.2009 29.0158 29.1798 28.9248 29.1798 28.8338C29.1798 28.7226 29.2009 28.6215 29.2431 28.5305C29.2854 28.4395 29.3487 28.3586 29.4332 28.2878C29.5177 28.2171 29.6128 28.1665 29.7395 28.1261C29.8557 28.0856 29.993 28.0654 30.1408 28.0654C30.2042 28.0654 30.2781 28.0654 30.3415 28.0755C30.4048 28.0856 30.4576 28.0957 30.5104 28.1059C30.5632 28.116 30.6055 28.1362 30.6372 28.1463C30.6794 28.1665 30.7005 28.1766 30.7217 28.1968C30.7639 28.207 30.7745 28.2373 30.7745 28.2777Z" fill="#2B2A29"/>
</svg>
