<svg width="7" height="6" viewBox="0 0 7 6" fill="none" xmlns="http://www.w3.org/2000/svg">
<path d="M3.34 5.02355C2.32 5.02355 1.3 5.02355 0.279998 5.02355C0.239998 5.02355 0.199998 5.02355 0.169998 5.00355C0.0999976 4.98355 0.0599976 4.93355 0.0599976 4.85355C0.0599976 3.55355 0.0599976 2.24355 0.0599976 0.943547C0.0599976 0.853547 0.129998 0.783549 0.219998 0.773549C0.239998 0.773549 0.269998 0.773549 0.289998 0.773549C1.52 0.773549 2.75 0.773549 3.97 0.773549C4.03 0.773549 4.06 0.753549 4.09 0.703549C4.35 0.213549 4.92 -0.0664535 5.48 0.0135465C6.04 0.103547 6.5 0.543548 6.6 1.09355C6.62 1.18355 6.62 1.27355 6.62 1.36355C6.62 2.50355 6.62 3.64355 6.62 4.78355C6.62 4.94355 6.55 5.01355 6.39 5.01355C5.38 5.02355 4.36 5.02355 3.34 5.02355ZM6.24 1.95355C6.23 1.95355 6.22 1.95355 6.22 1.95355C6.02 2.03355 5.82 2.00355 5.64 1.89355C5.6 1.86355 5.56 1.86355 5.51 1.88355C5.27 1.99355 4.98 1.92355 4.82 1.71355C4.65 1.50355 4.65 1.21355 4.82 0.993546C4.98 0.783546 5.27 0.713548 5.51 0.823548C5.77 0.933548 5.9 1.21355 5.84 1.49355C5.84 1.51355 5.84 1.55355 5.85 1.56355C6 1.66355 6.19 1.58355 6.23 1.42355C6.24 1.36355 6.24 1.29355 6.23 1.22355C6.16 0.673549 5.63 0.293546 5.09 0.403546C4.53 0.513546 4.19 1.06355 4.35 1.61355C4.52 2.21355 5.19 2.49355 5.74 2.20355C5.86 2.14355 5.97 2.16355 6.02 2.26355C6.08 2.36355 6.04 2.48355 5.92 2.54355C5.53 2.75355 5.13 2.76355 4.72 2.58355C4.68 2.56355 4.65 2.57355 4.62 2.59355C4.25 2.86355 3.87 3.13355 3.49 3.40355C3.36 3.49355 3.3 3.49355 3.17 3.40355C2.28 2.75355 1.38 2.09355 0.489998 1.44355C0.469998 1.43355 0.449998 1.42355 0.429998 1.40355C0.429998 2.48355 0.429998 3.55355 0.429998 4.63355C2.37 4.63355 4.3 4.63355 6.24 4.63355C6.24 3.74355 6.24 2.84355 6.24 1.95355ZM0.769998 1.16355C0.789998 1.18355 0.799998 1.19355 0.819998 1.20355C1.65 1.80355 2.47 2.41355 3.3 3.01355C3.34 3.04355 3.36 3.03355 3.39 3.01355C3.62 2.84355 3.85 2.68355 4.08 2.51355C4.17 2.45355 4.25 2.39355 4.34 2.32355C4.02 1.99355 3.89 1.61355 3.94 1.16355C2.88 1.16355 1.83 1.16355 0.769998 1.16355ZM5.28 1.55355C5.38 1.55355 5.47 1.46355 5.47 1.36355C5.47 1.26355 5.38 1.17355 5.28 1.17355C5.17 1.17355 5.08 1.26355 5.08 1.36355C5.09 1.46355 5.18 1.55355 5.28 1.55355Z" fill="#2B2A29"/>
</svg>
