<svg width="7" height="6" viewBox="0 0 7 6" fill="none" xmlns="http://www.w3.org/2000/svg">
<path d="M0 2.33196C0.03 2.33196 0.05 2.34196 0.08 2.34196C0.48 2.34196 0.89 2.34196 1.29 2.34196C1.32 2.34196 1.34 2.34196 1.37 2.34196C1.39 2.59196 1.29 2.76196 1.07 2.78196C0.8 2.81196 0.53 2.82196 0.27 2.77196C0.12 2.74196 0.05 2.64196 0.02 2.50196C0.02 2.48196 0.01 2.47196 0.01 2.45196C0 2.41196 0 2.37196 0 2.33196Z" fill="black"/>
<path d="M2.55998 2.11196C3.03998 2.11196 3.50998 2.11196 3.98998 2.11196C3.98998 2.02196 3.98998 1.94196 3.98998 1.85196C3.98998 1.76196 3.99998 1.74196 4.08998 1.73196C4.23998 1.72196 4.39998 1.73196 4.54998 1.73196C4.60998 1.73196 4.63998 1.77196 4.63998 1.83196C4.63998 1.93196 4.63998 2.03196 4.63998 2.12196C4.63998 2.15196 4.65998 2.19196 4.67998 2.21196C5.14998 2.77196 5.58998 3.36196 5.99998 3.97196C6.04998 4.05196 6.07998 4.13196 6.06998 4.22196C6.06998 4.56196 6.06998 4.90196 6.06998 5.24196C6.06998 5.40196 5.99998 5.47196 5.83998 5.47196C4.12998 5.47196 2.42998 5.47196 0.719981 5.47196C0.559981 5.47196 0.48998 5.40196 0.47998 5.23196C0.47998 4.89196 0.47998 4.55196 0.47998 4.21196C0.47998 4.12196 0.49998 4.04196 0.55998 3.96196C0.73998 3.70196 0.91998 3.43196 1.10998 3.17196C1.35998 2.83196 1.62998 2.51196 1.88998 2.18196C1.90998 2.16196 1.91998 2.13196 1.91998 2.10196C1.91998 2.00196 1.91998 1.90196 1.91998 1.81196C1.91998 1.75196 1.93998 1.71196 2.00998 1.71196C2.16998 1.71196 2.32998 1.71196 2.47998 1.71196C2.53998 1.71196 2.56998 1.75196 2.56998 1.81196C2.55998 1.92196 2.55998 2.01196 2.55998 2.11196ZM4.23998 2.80196C4.23998 2.70196 4.14998 2.61196 4.04998 2.61196C3.94998 2.61196 3.85998 2.69196 3.85998 2.80196C3.85998 2.90196 3.93998 2.99196 4.04998 2.99196C4.14998 2.99196 4.23998 2.90196 4.23998 2.80196ZM4.23998 3.45196C4.23998 3.35196 4.15998 3.26196 4.04998 3.26196C3.94998 3.26196 3.85998 3.34196 3.85998 3.44196C3.85998 3.54196 3.93998 3.63196 4.03998 3.64196C4.14998 3.64196 4.23998 3.55196 4.23998 3.45196ZM3.45998 2.80196C3.45998 2.69196 3.37998 2.61196 3.26998 2.61196C3.16998 2.61196 3.07998 2.70196 3.07998 2.80196C3.07998 2.90196 3.16998 2.99196 3.26998 2.99196C3.37998 2.99196 3.45998 2.90196 3.45998 2.80196ZM3.45998 4.10196C3.45998 4.00196 3.37998 3.91196 3.26998 3.91196C3.15998 3.91196 3.07998 3.99196 3.07998 4.10196C3.07998 4.20196 3.16998 4.29196 3.26998 4.29196C3.36998 4.29196 3.45998 4.20196 3.45998 4.10196ZM3.26998 3.26196C3.16998 3.26196 3.07998 3.34196 3.07998 3.45196C3.07998 3.55196 3.16998 3.64196 3.26998 3.64196C3.36998 3.64196 3.45998 3.56196 3.45998 3.45196C3.45998 3.34196 3.37998 3.26196 3.26998 3.26196ZM2.48998 3.26196C2.38998 3.26196 2.29998 3.34196 2.29998 3.45196C2.29998 3.55196 2.38998 3.64196 2.48998 3.64196C2.58998 3.64196 2.67998 3.55196 2.67998 3.45196C2.67998 3.34196 2.59998 3.26196 2.48998 3.26196ZM4.04998 3.91196C3.94998 3.91196 3.85998 3.99196 3.85998 4.09196C3.85998 4.19196 3.93998 4.28196 4.04998 4.28196C4.14998 4.28196 4.23998 4.19196 4.23998 4.09196C4.23998 3.99196 4.15998 3.91196 4.04998 3.91196ZM2.48998 2.99196C2.58998 2.99196 2.67998 2.91196 2.67998 2.80196C2.67998 2.69196 2.58998 2.61196 2.48998 2.61196C2.38998 2.61196 2.29998 2.70196 2.29998 2.80196C2.29998 2.90196 2.38998 2.99196 2.48998 2.99196ZM2.48998 3.91196C2.37998 3.91196 2.29998 3.99196 2.29998 4.10196C2.29998 4.20196 2.37998 4.29196 2.48998 4.29196C2.58998 4.29196 2.67998 4.21196 2.67998 4.10196C2.67998 3.99196 2.59998 3.91196 2.48998 3.91196Z" fill="black"/>
<path d="M6.67001 2.18196C6.22001 2.18196 5.76001 2.18196 5.31001 2.18196C5.29001 2.05196 5.27001 1.93196 5.25001 1.81196C5.19001 1.56196 5.09001 1.35196 4.87001 1.20196C4.72001 1.10196 4.54001 1.05196 4.36001 1.03196C4.18001 1.01196 4.00001 1.00196 3.81001 1.00196C3.37001 1.00196 2.92001 1.00196 2.48001 1.01196C2.26001 1.02196 2.05001 1.06196 1.86001 1.18196C1.62001 1.32196 1.50001 1.54196 1.44001 1.80196C1.41001 1.93196 1.39001 2.06196 1.37001 2.19196C0.92001 2.19196 0.48001 2.19196 0.0100098 2.19196C0.0200098 2.08196 0.0200098 1.97196 0.0300098 1.87196C0.0600098 1.56196 0.15001 1.27196 0.33001 1.00196C0.55001 0.671961 0.85001 0.461962 1.21001 0.311962C1.57001 0.161962 1.94001 0.0919622 2.32001 0.0519622C2.85001 -0.00803784 3.39001 -0.00803875 3.92001 0.0119612C4.40001 0.0219612 4.89001 0.081961 5.35001 0.251961C5.81001 0.411961 6.20001 0.681962 6.44001 1.12196C6.58001 1.38196 6.65001 1.67196 6.67001 1.97196C6.67001 2.03196 6.67001 2.10196 6.67001 2.18196Z" fill="black"/>
<path d="M6.69 2.35196C6.68 2.42196 6.67 2.49196 6.65 2.56196C6.61 2.70196 6.49 2.76196 6.36 2.77196C6.12 2.78196 5.89 2.79196 5.65 2.77196C5.4 2.75196 5.29 2.61196 5.3 2.35196C5.76 2.35196 6.22 2.35196 6.69 2.35196Z" fill="black"/>
<path d="M4.23999 2.80196C4.23999 2.90196 4.14999 2.99196 4.04999 2.99196C3.94999 2.99196 3.85999 2.90196 3.85999 2.80196C3.85999 2.70196 3.94999 2.62196 4.04999 2.61196C4.14999 2.61196 4.23999 2.69196 4.23999 2.80196Z" fill="white"/>
<path d="M4.24002 3.45196C4.24002 3.55196 4.15002 3.64196 4.05002 3.64196C3.95002 3.64196 3.86002 3.55196 3.87002 3.44196C3.87002 3.34196 3.96002 3.26196 4.06002 3.26196C4.16002 3.26196 4.24002 3.35196 4.24002 3.45196Z" fill="white"/>
<path d="M3.46002 2.80196C3.46002 2.90196 3.38002 2.99196 3.27002 2.99196C3.17002 2.99196 3.08002 2.90196 3.08002 2.80196C3.08002 2.70196 3.17002 2.61196 3.27002 2.61196C3.37002 2.61196 3.46002 2.69196 3.46002 2.80196Z" fill="white"/>
<path d="M3.46002 4.10196C3.46002 4.21196 3.38002 4.29196 3.27002 4.29196C3.17002 4.29196 3.08002 4.20196 3.08002 4.10196C3.08002 4.00196 3.17002 3.91196 3.27002 3.91196C3.38002 3.91196 3.46002 3.99196 3.46002 4.10196Z" fill="white"/>
<path d="M3.27002 3.26196C3.38002 3.26196 3.46002 3.34196 3.46002 3.45196C3.46002 3.55196 3.37002 3.64196 3.27002 3.64196C3.17002 3.64196 3.08002 3.55196 3.08002 3.45196C3.08002 3.34196 3.17002 3.26196 3.27002 3.26196Z" fill="white"/>
<path d="M2.48999 3.26196C2.59999 3.26196 2.67999 3.34196 2.67999 3.45196C2.67999 3.55196 2.59999 3.64196 2.48999 3.64196C2.38999 3.64196 2.29999 3.55196 2.29999 3.45196C2.29999 3.34196 2.38999 3.26196 2.48999 3.26196Z" fill="white"/>
<path d="M4.04999 3.91196C4.14999 3.91196 4.23999 3.99196 4.23999 4.10196C4.23999 4.20196 4.14999 4.29196 4.04999 4.29196C3.94999 4.29196 3.85999 4.20196 3.85999 4.10196C3.85999 3.99196 3.94999 3.91196 4.04999 3.91196Z" fill="white"/>
<path d="M2.48999 2.99196C2.37999 2.99196 2.29999 2.91196 2.29999 2.80196C2.29999 2.70196 2.37999 2.61196 2.48999 2.61196C2.58999 2.61196 2.67999 2.69196 2.67999 2.80196C2.67999 2.90196 2.59999 2.99196 2.48999 2.99196Z" fill="white"/>
<path d="M2.48999 3.91196C2.58999 3.91196 2.66999 3.99196 2.67999 4.10196C2.67999 4.21196 2.58999 4.29196 2.48999 4.29196C2.38999 4.29196 2.30999 4.20196 2.29999 4.10196C2.29999 3.99196 2.38999 3.91196 2.48999 3.91196Z" fill="white"/>
</svg>
