<svg width="142" height="48" viewBox="0 0 142 48" fill="none" xmlns="http://www.w3.org/2000/svg">
<path d="M152.7 5V10.09C150.81 10.1 148.92 10.15 147.04 10.24C138.86 10.66 130.72 11.75 122.94 13.99C115.08 16.22 107.53 19.39 100.33 23.29C96.73 25.23 93.21 27.36 89.7 29.58C86.18 31.78 82.7 34.13 79.05 36.35C77.23 37.47 75.37 38.55 73.47 39.59C71.56 40.62 69.6 41.59 67.6 42.49C63.58 44.25 59.34 45.67 55 46.54C54.46 46.65 53.92 46.77 53.37 46.86L51.73 47.12L50.91 47.25L50.05 47.35C49.48 47.43 48.92 47.46 48.35 47.51C46.91 47.61 45.48 47.66 44.07 47.66C43.28 47.66 42.48 47.65 41.69 47.62C37.31 47.46 32.98 46.98 28.71 46.21C24.43 45.46 20.22 44.41 16.06 43.15C11.91 41.87 7.83 40.34 3.83 38.6C0.48 37.12 -2.8 35.46 -6 33.62V22.08C4.69 29.87 17.21 35.33 30.24 38.13C34.15 38.98 38.12 39.57 42.06 39.85C44.03 39.98 46 40.04 47.91 39.95C48.38 39.92 48.87 39.91 49.33 39.86L50.03 39.8L50.75 39.71L52.21 39.53C52.69 39.46 53.18 39.37 53.66 39.29C57.52 38.65 61.29 37.53 64.97 36.06C66.81 35.31 68.63 34.48 70.43 33.58C72.23 32.67 74.02 31.71 75.8 30.69C82.93 26.63 90.03 21.92 97.66 18.05C101.46 16.1 105.37 14.33 109.36 12.78C113.35 11.23 117.43 9.93 121.54 8.8C129.84 6.52 138.35 5.47 146.82 5.13C148.77 5.06 150.74 5.01 152.7 5Z" fill="#5BB4E5"/>
<path d="M152.7 0V5.09C150.81 5.1 148.92 5.15 147.04 5.24C138.86 5.66 130.72 6.75 122.94 8.99C115.08 11.22 107.53 14.39 100.33 18.29C96.73 20.23 93.21 22.36 89.7 24.58C86.18 26.78 82.7 29.13 79.05 31.35C77.23 32.47 75.37 33.55 73.47 34.59C71.56 35.62 69.6 36.59 67.6 37.49C63.58 39.25 59.34 40.67 55 41.54C54.46 41.65 53.92 41.77 53.37 41.86L51.73 42.12L50.91 42.25L50.05 42.35C49.48 42.43 48.92 42.46 48.35 42.51C46.91 42.61 45.48 42.66 44.07 42.66C43.28 42.66 42.48 42.65 41.69 42.62C37.31 42.46 32.98 41.98 28.71 41.21C24.43 40.46 20.22 39.41 16.06 38.15C11.91 36.87 7.83 35.34 3.83 33.6C0.48 32.12 -2.8 30.46 -6 28.62V17.08C4.69 24.87 17.21 30.33 30.24 33.13C34.15 33.98 38.12 34.57 42.06 34.85C44.03 34.98 46 35.04 47.91 34.95C48.38 34.92 48.87 34.91 49.33 34.86L50.03 34.8L50.75 34.71L52.21 34.53C52.69 34.46 53.18 34.37 53.66 34.29C57.52 33.65 61.29 32.53 64.97 31.06C66.81 30.31 68.63 29.48 70.43 28.58C72.23 27.67 74.02 26.71 75.8 25.69C82.93 21.63 90.03 16.92 97.66 13.05C101.46 11.1 105.37 9.33 109.36 7.78C113.35 6.23 117.43 4.93 121.54 3.8C129.84 1.52 138.35 0.47 146.82 0.13C148.77 0.06 150.74 0.01 152.7 0Z" fill="#2B2A29"/>
</svg>
